<?xml version="1.0" encoding="UTF-8" standalone="no"?><svg xmlns="http://www.w3.org/2000/svg" xmlns:xlink="http://www.w3.org/1999/xlink" contentStyleType="text/css" height="445px" preserveAspectRatio="none" style="width:484px;height:445px;background:#22212C;" version="1.1" viewBox="0 0 484 445" width="484px" zoomAndPan="magnify"><defs/><g><ellipse cx="161" cy="20" fill="#8AFF80" rx="10" ry="10" style="stroke:#222222;stroke-width:1.0;"/><rect fill="#454158" height="44" rx="10" ry="10" style="stroke:#8AFF80;stroke-width:0.5;" width="68" x="127" y="50"/><text fill="#FF80BF" font-family="Fira Mono" font-size="20" lengthAdjust="spacing" textLength="48" x="137" y="78.7">init</text><polygon fill="#454158" points="125,149.2999,197,149.2999,209,161.2999,197,173.2999,125,173.2999,113,161.2999,125,149.2999" style="stroke:#8AFF80;stroke-width:0.5;"/><text fill="#FF80BF" font-family="Fira Mono" font-size="20" lengthAdjust="spacing" textLength="72" x="125" y="167.9999">color?</text><text fill="#FF0000" font-family="Fira Mono" font-size="20" lengthAdjust="spacing" textLength="36" x="77" y="156">red</text><rect fill="#454158" height="44" rx="10" ry="10" style="stroke:#8AFF80;stroke-width:0.5;" width="128" x="11" y="183.2999"/><text fill="#FF80BF" font-family="Fira Mono" font-size="20" lengthAdjust="spacing" textLength="108" x="21" y="211.9999">print red</text><path d="M355,188.2999 L355,201.2999 L335,205.2999 L355,209.2999 L355,222.2999 A0,0 0 0 0 355,222.2999 L472,222.2999 A0,0 0 0 0 472,222.2999 L472,198.2999 L462,188.2999 L355,188.2999 A0,0 0 0 0 355,188.2999 " fill="#FFFF80" style="stroke:#181818;stroke-width:0.5;"/><path d="M462,188.2999 L462,198.2999 L472,198.2999 L462,188.2999 " fill="#FFFF80" style="stroke:#181818;stroke-width:0.5;"/><text fill="#22212C" font-family="Fira Mono" font-size="20" lengthAdjust="spacing" textLength="96" x="361" y="211.9999">no color</text><rect fill="#454158" height="44" rx="10" ry="10" style="stroke:#8AFF80;stroke-width:0.5;" width="176" x="159" y="183.2999"/><text fill="#FF80BF" font-family="Fira Mono" font-size="20" lengthAdjust="spacing" textLength="156" x="169" y="211.9999">print not red</text><polygon fill="#454158" points="161,233.2999,173,245.2999,161,257.2999,149,245.2999,161,233.2999" style="stroke:#8AFF80;stroke-width:0.5;"/><rect fill="none" height="100" rx="10" ry="10" style="stroke:#F8F8F2;stroke-width:1.5;" width="76" x="123" y="267.2999"/><path d="M169,267.2999 L169,284.2999 L159,294.2999 L123,294.2999 " fill="none" style="stroke:#F8F8F2;stroke-width:1.5;"/><text fill="#FF80BF" font-family="Fira Mono" font-size="20" lengthAdjust="spacing" textLength="36" x="126" y="286.9999">End</text><rect fill="#454158" height="44" rx="10" ry="10" style="stroke:#8AFF80;stroke-width:0.5;" width="56" x="133" y="311.2999"/><text fill="#FF80BF" font-family="Fira Mono" font-size="20" lengthAdjust="spacing" textLength="36" x="143" y="339.9999">end</text><ellipse cx="161" cy="424.9999" fill="none" rx="10" ry="10" style="stroke:#FF9580;stroke-width:1.5;"/><line style="stroke:#FF9580;stroke-width:2.5;" x1="154.8128" x2="167.1872" y1="418.8127" y2="431.187"/><line style="stroke:#FF9580;stroke-width:2.5;" x1="167.1872" x2="154.8128" y1="418.8127" y2="431.187"/><line style="stroke:#FF80BF;stroke-width:1.0;" x1="161" x2="161" y1="30" y2="50"/><polygon fill="#FF80BF" points="157,40,161,50,165,40,161,44" style="stroke:#FF80BF;stroke-width:1.0;"/><line style="stroke:#FF80BF;stroke-width:1.0;" x1="113" x2="75" y1="161.2999" y2="161.2999"/><line style="stroke:#FF80BF;stroke-width:1.0;" x1="75" x2="75" y1="161.2999" y2="183.2999"/><polygon fill="#FF80BF" points="71,173.2999,75,183.2999,79,173.2999,75,177.2999" style="stroke:#FF80BF;stroke-width:1.0;"/><line style="stroke:#FF80BF;stroke-width:1.0;" x1="209" x2="247" y1="161.2999" y2="161.2999"/><line style="stroke:#FF80BF;stroke-width:1.0;" x1="247" x2="247" y1="161.2999" y2="183.2999"/><polygon fill="#FF80BF" points="243,173.2999,247,183.2999,251,173.2999,247,177.2999" style="stroke:#FF80BF;stroke-width:1.0;"/><line style="stroke:#FF80BF;stroke-width:1.0;" x1="75" x2="75" y1="227.2999" y2="245.2999"/><line style="stroke:#FF80BF;stroke-width:1.0;" x1="75" x2="149" y1="245.2999" y2="245.2999"/><polygon fill="#FF80BF" points="139,241.2999,149,245.2999,139,249.2999,143,245.2999" style="stroke:#FF80BF;stroke-width:1.0;"/><line style="stroke:#FF80BF;stroke-width:1.0;" x1="247" x2="247" y1="227.2999" y2="245.2999"/><line style="stroke:#FF80BF;stroke-width:1.0;" x1="247" x2="173" y1="245.2999" y2="245.2999"/><polygon fill="#FF80BF" points="183,241.2999,173,245.2999,183,249.2999,179,245.2999" style="stroke:#FF80BF;stroke-width:1.0;"/><line style="stroke:#FF80BF;stroke-width:1.0;" x1="161" x2="161" y1="94" y2="149.2999"/><polygon fill="#FF80BF" points="157,139.2999,161,149.2999,165,139.2999,161,143.2999" style="stroke:#FF80BF;stroke-width:1.0;"/><text fill="#FF80BF" font-family="Fira Mono" font-size="20" lengthAdjust="spacing" textLength="156" x="165" y="126.5">test of color</text><line style="stroke:#FF80BF;stroke-width:1.0;" x1="161" x2="161" y1="257.2999" y2="311.2999"/><polygon fill="#FF80BF" points="157,301.2999,161,311.2999,165,301.2999,161,305.2999" style="stroke:#FF80BF;stroke-width:1.0;"/><line style="stroke:#FF80BF;stroke-width:1.0;" x1="161" x2="161" y1="355.2999" y2="414.9999"/><polygon fill="#FF80BF" points="157,404.9999,161,414.9999,165,404.9999,161,408.9999" style="stroke:#FF80BF;stroke-width:1.0;"/><text fill="#FF80BF" font-family="Fira Mono" font-size="20" lengthAdjust="spacing" textLength="180" x="165" y="393.4999">this is the end</text><!--MD5=[c3182b2c028a01ab382b489090851e59]
@startuml

!include ../theme.puml

start
:init;
-> test of color;
if (color?) is (<color:red>red) then
  :print red;
else
  :print not red;
  note right: no color
endif
partition End {
  :end;
}
-> this is the end;
end

@enduml

@startuml






skinparam backgroundColor #22212C

skinparam {
  DefaultFontColor #FF80BF
  DefaultFontName Fira Mono
  DefaultFontSize 20

  

  ActivityBackgroundColor        #454158
  ActivityBarColor               #F8F8F2
  ActivityBorderColor            #8AFF80
  ActivityDiamondBackgroundColor #454158
  ActivityDiamondBorderColor     #8AFF80
  ActivityEndColor               #FF9580
  ActivityStartColor             #8AFF80
  ActivityStopColor              #FF9580

  ActorBackgroundColor        #454158
  ActorBorderColor            #8AFF80
  ActorStereotypeFontColor    #F8F8F2

  AgentBackgroundColor       #454158
  AgentBorderColor           #8AFF80

  
  ArrowColor #8AFF80

  ArtifactBackgroundColor     #454158
  ArtifactBorderColor         #8AFF80

  BackgroundColor #22212C
  

  BoundaryBackgroundColor     #454158
  BoundaryBorderColor         #8AFF80
  BoundaryStereotypeFontColor #F8F8F2

  
  CaptionFontColor #F8F8F2
  CaptionFontSize 15

  CardBackgroundColor     #454158
  CardBorderColor         #8AFF80
  

  ClassAttributeFontColor #8AFF80

  ClassBackgroundColor   #22212C
  ClassBorderColor       #9580FF
  ClassBorderThickness	 2
	ClassArrowColor				 #FF80BF
  ClassFontColor 				 #8AFF80
  ClassFontSize 				 20
  
  ClassHeaderBackgroundColor #454158


  CloudBackgroundColor        #454158
  CloudBorderColor            #8AFF80
  
  CollectionsBackgroundColor #454158
  CollectionsBorderColor     #8AFF80

  
  ComponentBackgroundColor       #454158
  ComponentBorderColor           #8AFF80



  ControlBackgroundColor #454158
  ControlBorderColor     #8AFF80
  ControlFontColor       #F8F8F2
  ControlStereotypeFontColor #F8F8F2

  DatabaseBackgroundColor       #454158
  DatabaseBorderColor           #8AFF80

  

  


  EntityBackgroundColor #454158
  EntityBorderColor     #8AFF80
  

  FileBackgroundColor #454158
  FileBorderColor     #8AFF80


 
  FolderBackgroundColor #454158
  FolderBorderColor     #8AFF80
  

  FrameBackgroundColor       #454158
  FrameBorderColor           #8AFF80

  HexagonBackgroundColor #454158
  HexagonBorderColor     #8AFF80


  InterfaceBackgroundColor       #454158
  InterfaceBorderColor           #8AFF80

  LegendBackgroundColor   #454158
  LegendBorderColor       #F8F8F2

  
  NodeBackgroundColor       #454158
  NodeBorderColor           #8AFF80
  

  NoteBackgroundColor   #FFFF80
  NoteBorderColor       #22212C
  NoteFontColor         #22212C
  
  ObjectBackgroundColor       #454158
  ObjectBorderColor           #8AFF80
  
  PackageBackgroundColor       #22212C
  PackageBorderColor           #8AFF80

  
  ParticipantBackgroundColor #454158
  ParticipantBorderColor     #8AFF80
  
  PartitionBackgroundColor transparent
  PartitionBorderColor     #F8F8F2
  

  PersonBackgroundColor #454158
  PersonBorderColor     #8AFF80
  
  QueueBackgroundColor       #454158
  QueueBorderColor           #8AFF80
  
  
  RectangleBackgroundColor       #454158
  RectangleBorderColor           #8AFF80


  RoundCorner 20

  
  SequenceBoxBackgroundColor #454158
  SequenceBoxBorderColor     #8AFF80


  SequenceDividerBackgroundColor   #454158
  SequenceDividerBorderColor       #F8F8F2
  
  SequenceGroupBackgroundColor       #454158
  SequenceGroupBorderColor           #F8F8F2

  SequenceLifeLineBackgroundColor   #22212C
  SequenceLifeLineBorderColor       #8AFF80

  SequenceNewpageSeparatorColor  #F8F8F2
  
  
  SequenceReferenceBackgroundColor        transparent
  SequenceReferenceBorderColor            #F8F8F2
  SequenceReferenceHeaderBackgroundColor #454158

  
  Shadowing false

  StackBackgroundColor       #454158
  StackBorderColor           #8AFF80

  
  StateBackgroundColor    #454158
  StateBorderColor        #8AFF80
  StateEndColor           #FF9580
  StateStartColor         #8AFF80

  
  StorageBackgroundColor #454158
  StorageBorderColor     #F8F8F2
  
  
  SwimlaneBorderColor            #F8F8F2




  UsecaseBackgroundColor       #454158
  UsecaseBorderColor           #8AFF80
  
}


start
:init;
-> test of color;
if (color?) is (<color:red>red) then
  :print red;
else
  :print not red;
  note right: no color
endif
partition End {
  :end;
}
-> this is the end;
end

@enduml

PlantUML version 1.2022.7(Mon Aug 22 13:01:30 EDT 2022)
(GPL source distribution)
Java Runtime: Java(TM) SE Runtime Environment
JVM: Java HotSpot(TM) 64-Bit Server VM
Default Encoding: UTF-8
Language: en
Country: CA
--></g></svg>