<?xml version="1.0" encoding="us-ascii" standalone="no"?><svg xmlns="http://www.w3.org/2000/svg" xmlns:xlink="http://www.w3.org/1999/xlink" contentStyleType="text/css" height="385px" preserveAspectRatio="none" style="width:302px;height:385px;background:#24273A;" version="1.1" viewBox="0 0 302 385" width="302px" zoomAndPan="magnify"><defs/><g><rect fill="#24273A" height="385" style="stroke:none;stroke-width:1.0;" width="302" x="0" y="0"/><ellipse cx="100" cy="20" fill="#A6DA95" rx="10" ry="10" style="stroke:#222222;stroke-width:1.0;"/><rect fill="#363A4F" height="33.9688" rx="1.5" ry="1.5" style="stroke:#B7BDF8;stroke-width:0.5;" width="39" x="80.5" y="50"/><text fill="#CAD3F5" font-family="Helvetica" font-size="12" lengthAdjust="spacing" textLength="19" x="90.5" y="71.1387">init</text><polygon fill="#363A4F" points="82.5,126.7676,117.5,126.7676,129.5,138.7676,117.5,150.7676,82.5,150.7676,70.5,138.7676,82.5,126.7676" style="stroke:#B7BDF8;stroke-width:0.5;"/><text fill="#CAD3F5" font-family="Helvetica" font-size="12" lengthAdjust="spacing" textLength="35" x="82.5" y="142.9219">color?</text><text fill="#FF0000" font-family="Helvetica" font-size="12" lengthAdjust="spacing" textLength="20" x="50.5" y="135.9375">red</text><rect fill="#363A4F" height="33.9688" rx="1.5" ry="1.5" style="stroke:#B7BDF8;stroke-width:0.5;" width="73" x="11" y="160.7676"/><text fill="#CAD3F5" font-family="Helvetica" font-size="12" lengthAdjust="spacing" textLength="53" x="21" y="181.9063">print red</text><path d="M221,165.7676 L221,173.752 L201,177.752 L221,181.752 L221,189.7363 A0,0 0 0 0 221,189.7363 L290,189.7363 A0,0 0 0 0 290,189.7363 L290,175.7676 L280,165.7676 L221,165.7676 A0,0 0 0 0 221,165.7676 " fill="#EED49F" style="stroke:#24273A;stroke-width:0.5;"/><path d="M280,165.7676 L280,175.7676 L290,175.7676 L280,165.7676 " fill="#EED49F" style="stroke:#24273A;stroke-width:0.5;"/><text fill="#24273A" font-family="Helvetica" font-size="12" lengthAdjust="spacing" textLength="48" x="227" y="181.9063">no color</text><rect fill="#363A4F" height="33.9688" rx="1.5" ry="1.5" style="stroke:#B7BDF8;stroke-width:0.5;" width="97" x="104" y="160.7676"/><text fill="#CAD3F5" font-family="Helvetica" font-size="12" lengthAdjust="spacing" textLength="77" x="114" y="181.9063">print not red</text><polygon fill="#363A4F" points="100,200.7363,112,212.7363,100,224.7363,88,212.7363,100,200.7363" style="stroke:#B7BDF8;stroke-width:0.5;"/><rect fill="none" height="79.9375" rx="1.5" ry="1.5" style="stroke:#CAD3F5;stroke-width:1.5;" width="63" x="68.5" y="234.7363"/><path d="M102.5,234.7363 L102.5,241.7051 L92.5,251.7051 L68.5,251.7051 " fill="none" style="stroke:#CAD3F5;stroke-width:1.5;"/><text fill="#CAD3F5" font-family="Helvetica" font-size="12" lengthAdjust="spacing" textLength="24" x="71.5" y="246.875">End</text><rect fill="#363A4F" height="33.9688" rx="1.5" ry="1.5" style="stroke:#B7BDF8;stroke-width:0.5;" width="43" x="78.5" y="268.7051"/><text fill="#CAD3F5" font-family="Helvetica" font-size="12" lengthAdjust="spacing" textLength="23" x="88.5" y="289.8438">end</text><ellipse cx="100" cy="364.8125" fill="none" rx="10" ry="10" style="stroke:#ED8796;stroke-width:1.5;"/><line style="stroke:#ED8796;stroke-width:2.5;" x1="93.8128" x2="106.1872" y1="358.6253" y2="370.9997"/><line style="stroke:#ED8796;stroke-width:2.5;" x1="106.1872" x2="93.8128" y1="358.6253" y2="370.9997"/><line style="stroke:#F5BDE6;stroke-width:1.0;" x1="100" x2="100" y1="30" y2="50"/><polygon fill="#F5BDE6" points="96,40,100,50,104,40,100,44" style="stroke:#F5BDE6;stroke-width:1.0;"/><line style="stroke:#F5BDE6;stroke-width:1.0;" x1="70.5" x2="47.5" y1="138.7676" y2="138.7676"/><line style="stroke:#F5BDE6;stroke-width:1.0;" x1="47.5" x2="47.5" y1="138.7676" y2="160.7676"/><polygon fill="#F5BDE6" points="43.5,150.7676,47.5,160.7676,51.5,150.7676,47.5,154.7676" style="stroke:#F5BDE6;stroke-width:1.0;"/><line style="stroke:#F5BDE6;stroke-width:1.0;" x1="129.5" x2="152.5" y1="138.7676" y2="138.7676"/><line style="stroke:#F5BDE6;stroke-width:1.0;" x1="152.5" x2="152.5" y1="138.7676" y2="160.7676"/><polygon fill="#F5BDE6" points="148.5,150.7676,152.5,160.7676,156.5,150.7676,152.5,154.7676" style="stroke:#F5BDE6;stroke-width:1.0;"/><line style="stroke:#F5BDE6;stroke-width:1.0;" x1="47.5" x2="47.5" y1="194.7363" y2="212.7363"/><line style="stroke:#F5BDE6;stroke-width:1.0;" x1="47.5" x2="88" y1="212.7363" y2="212.7363"/><polygon fill="#F5BDE6" points="78,208.7363,88,212.7363,78,216.7363,82,212.7363" style="stroke:#F5BDE6;stroke-width:1.0;"/><line style="stroke:#F5BDE6;stroke-width:1.0;" x1="152.5" x2="152.5" y1="194.7363" y2="212.7363"/><line style="stroke:#F5BDE6;stroke-width:1.0;" x1="152.5" x2="112" y1="212.7363" y2="212.7363"/><polygon fill="#F5BDE6" points="122,208.7363,112,212.7363,122,216.7363,118,212.7363" style="stroke:#F5BDE6;stroke-width:1.0;"/><line style="stroke:#F5BDE6;stroke-width:1.0;" x1="100" x2="100" y1="83.9688" y2="126.7676"/><polygon fill="#F5BDE6" points="96,116.7676,100,126.7676,104,116.7676,100,120.7676" style="stroke:#F5BDE6;stroke-width:1.0;"/><text fill="#CAD3F5" font-family="Helvetica" font-size="12" lengthAdjust="spacing" textLength="71" x="104" y="106.4375">test of color</text><line style="stroke:#F5BDE6;stroke-width:1.0;" x1="100" x2="100" y1="224.7363" y2="268.7051"/><polygon fill="#F5BDE6" points="96,258.7051,100,268.7051,104,258.7051,100,262.7051" style="stroke:#F5BDE6;stroke-width:1.0;"/><line style="stroke:#F5BDE6;stroke-width:1.0;" x1="100" x2="100" y1="302.6738" y2="354.8125"/><polygon fill="#F5BDE6" points="96,344.8125,100,354.8125,104,344.8125,100,348.8125" style="stroke:#F5BDE6;stroke-width:1.0;"/><text fill="#CAD3F5" font-family="Helvetica" font-size="12" lengthAdjust="spacing" textLength="86" x="104" y="333.3125">this is the end</text><!--SRC=[HOun3i8m34Ltd-ApjGDbJr2PE0XgN6efJQh4dH1tnmr8IBRr_Ipx-oHfYdjW3CD55rvvsFOr4bLz52KdITJJUOHoLUGPKuwvU98PNPEt7bBHNLlZ2eVHieUTIWIuhKXI6FB4iV8VfVp3E2IZo7DHP_hhG9o2pBJP4wAI4-ufu7Misy3JkxsqcBE5UQ5HA_G1]--></g></svg>