<?xml version="1.0" encoding="UTF-8" standalone="no"?><svg xmlns="http://www.w3.org/2000/svg" xmlns:xlink="http://www.w3.org/1999/xlink" contentStyleType="text/css" height="525px" preserveAspectRatio="none" style="width:1152px;height:525px;background:#22212C;" version="1.1" viewBox="0 0 1152 525" width="1152px" zoomAndPan="magnify"><defs/><g><!--MD5=[b4fa10df80476353258f72a232547d63]
class AbstractList--><g id="elem_AbstractList"><rect codeLine="4" fill="#22212C" height="50" id="AbstractList" rx="10" ry="10" style="stroke:#9580FF;stroke-width:2.0;" width="178" x="462" y="250"/><rect fill="#454158" height="34" rx="10" ry="10" style="stroke:#454158;stroke-width:2.0;" width="178" x="462" y="250"/><rect fill="#454158" height="10" style="stroke:#454158;stroke-width:2.0;" width="178" x="462" y="274"/><rect codeLine="4" fill="none" height="50" id="AbstractList" rx="10" ry="10" style="stroke:#9580FF;stroke-width:2.0;" width="178" x="462" y="250"/><ellipse cx="478" cy="267" fill="#A9DCDF" rx="12" ry="12" style="stroke:#181818;stroke-width:1.0;"/><path d="M480.4531,269.0313 L475.5781,269.0313 L475.0938,270.25 L475.5781,270.25 Q476.3125,270.25 476.6094,270.5313 Q476.9219,270.7969 476.9219,271.25 Q476.9219,271.6875 476.6094,271.9688 Q476.3125,272.25 475.5781,272.25 L472.8906,272.25 Q472.1719,272.25 471.8594,271.9688 Q471.5469,271.6875 471.5469,271.25 Q471.5469,270.7969 471.875,270.5156 Q472.2031,270.2344 472.9375,270.25 L476.0781,262.4219 L474.7813,262.4219 Q474.0469,262.4219 473.7344,262.1406 Q473.4375,261.8594 473.4375,261.4063 Q473.4375,260.9531 473.7344,260.6875 Q474.0469,260.4063 474.7813,260.4063 L479.0938,260.4063 L483.0781,270.25 Q483.7813,270.25 484.0156,270.4063 Q484.4688,270.7188 484.4688,271.25 Q484.4688,271.6875 484.1563,271.9688 Q483.8594,272.25 483.1406,272.25 L480.4375,272.25 Q479.7188,272.25 479.4063,271.9688 Q479.0938,271.6875 479.0938,271.25 Q479.0938,270.7969 479.4063,270.5313 Q479.7188,270.25 480.4375,270.25 L480.9219,270.25 L480.4531,269.0313 Z M479.625,267.0313 L478,263.0625 L476.3906,267.0313 L479.625,267.0313 Z " fill="#FF80BF"/><text fill="#8AFF80" font-family="Fira Mono" font-size="20" font-style="italic" lengthAdjust="spacing" textLength="144" x="493" y="273.7">AbstractList</text><line style="stroke:#9580FF;stroke-width:2.0;" x1="463" x2="639" y1="284" y2="284"/><line style="stroke:#9580FF;stroke-width:2.0;" x1="463" x2="639" y1="292" y2="292"/></g><!--MD5=[8e34b16d8d8f96f4a11290cd523ed859]
class AbstractCollection--><g id="elem_AbstractCollection"><rect codeLine="5" fill="#22212C" height="50" id="AbstractCollection" rx="10" ry="10" style="stroke:#9580FF;stroke-width:2.0;" width="250" x="7" y="250"/><rect fill="#454158" height="34" rx="10" ry="10" style="stroke:#454158;stroke-width:2.0;" width="250" x="7" y="250"/><rect fill="#454158" height="10" style="stroke:#454158;stroke-width:2.0;" width="250" x="7" y="274"/><rect codeLine="5" fill="none" height="50" id="AbstractCollection" rx="10" ry="10" style="stroke:#9580FF;stroke-width:2.0;" width="250" x="7" y="250"/><ellipse cx="23" cy="267" fill="#A9DCDF" rx="12" ry="12" style="stroke:#181818;stroke-width:1.0;"/><path d="M25.4531,269.0313 L20.5781,269.0313 L20.0938,270.25 L20.5781,270.25 Q21.3125,270.25 21.6094,270.5313 Q21.9219,270.7969 21.9219,271.25 Q21.9219,271.6875 21.6094,271.9688 Q21.3125,272.25 20.5781,272.25 L17.8906,272.25 Q17.1719,272.25 16.8594,271.9688 Q16.5469,271.6875 16.5469,271.25 Q16.5469,270.7969 16.875,270.5156 Q17.2031,270.2344 17.9375,270.25 L21.0781,262.4219 L19.7813,262.4219 Q19.0469,262.4219 18.7344,262.1406 Q18.4375,261.8594 18.4375,261.4063 Q18.4375,260.9531 18.7344,260.6875 Q19.0469,260.4063 19.7813,260.4063 L24.0938,260.4063 L28.0781,270.25 Q28.7813,270.25 29.0156,270.4063 Q29.4688,270.7188 29.4688,271.25 Q29.4688,271.6875 29.1563,271.9688 Q28.8594,272.25 28.1406,272.25 L25.4375,272.25 Q24.7188,272.25 24.4063,271.9688 Q24.0938,271.6875 24.0938,271.25 Q24.0938,270.7969 24.4063,270.5313 Q24.7188,270.25 25.4375,270.25 L25.9219,270.25 L25.4531,269.0313 Z M24.625,267.0313 L23,263.0625 L21.3906,267.0313 L24.625,267.0313 Z " fill="#FF80BF"/><text fill="#8AFF80" font-family="Fira Mono" font-size="20" font-style="italic" lengthAdjust="spacing" textLength="216" x="38" y="273.7">AbstractCollection</text><line style="stroke:#9580FF;stroke-width:2.0;" x1="8" x2="256" y1="284" y2="284"/><line style="stroke:#9580FF;stroke-width:2.0;" x1="8" x2="256" y1="292" y2="292"/></g><!--MD5=[3d4177ac58b4411586d067f34e84928f]
class List--><g id="elem_List"><rect codeLine="6" fill="#22212C" height="50" id="List" rx="10" ry="10" style="stroke:#9580FF;stroke-width:2.0;" width="82" x="443" y="43"/><rect fill="#454158" height="34" rx="10" ry="10" style="stroke:#454158;stroke-width:2.0;" width="82" x="443" y="43"/><rect fill="#454158" height="10" style="stroke:#454158;stroke-width:2.0;" width="82" x="443" y="67"/><rect codeLine="6" fill="none" height="50" id="List" rx="10" ry="10" style="stroke:#9580FF;stroke-width:2.0;" width="82" x="443" y="43"/><ellipse cx="459" cy="60" fill="#B4A7E5" rx="12" ry="12" style="stroke:#181818;stroke-width:1.0;"/><path d="M460,56.1719 L460,64 L462.0313,64 Q462.75,64 463.0469,64.2813 Q463.3594,64.5469 463.3594,65 Q463.3594,65.4375 463.0469,65.7188 Q462.75,66 462.0313,66 L455.9844,66 Q455.25,66 454.9375,65.7188 Q454.6406,65.4375 454.6406,65 Q454.6406,64.5469 454.9375,64.2813 Q455.25,64 455.9844,64 L458,64 L458,56.1719 L455.9844,56.1719 Q455.25,56.1719 454.9375,55.8906 Q454.6406,55.6094 454.6406,55.1563 Q454.6406,54.7031 454.9375,54.4375 Q455.25,54.1563 455.9844,54.1563 L462.0313,54.1563 Q462.75,54.1563 463.0469,54.4375 Q463.3594,54.7031 463.3594,55.1563 Q463.3594,55.6094 463.0469,55.8906 Q462.75,56.1719 462.0313,56.1719 L460,56.1719 Z " fill="#FF80BF"/><text fill="#8AFF80" font-family="Fira Mono" font-size="20" font-style="italic" lengthAdjust="spacing" textLength="48" x="474" y="66.7">List</text><line style="stroke:#9580FF;stroke-width:2.0;" x1="444" x2="524" y1="77" y2="77"/><line style="stroke:#9580FF;stroke-width:2.0;" x1="444" x2="524" y1="85" y2="85"/></g><!--MD5=[c160724f8e3bb89ca8141a12554ac2e3]
class Collection--><g id="elem_Collection"><rect codeLine="7" fill="#22212C" height="50" id="Collection" rx="10" ry="10" style="stroke:#9580FF;stroke-width:2.0;" width="154" x="93" y="43"/><rect fill="#454158" height="34" rx="10" ry="10" style="stroke:#454158;stroke-width:2.0;" width="154" x="93" y="43"/><rect fill="#454158" height="10" style="stroke:#454158;stroke-width:2.0;" width="154" x="93" y="67"/><rect codeLine="7" fill="none" height="50" id="Collection" rx="10" ry="10" style="stroke:#9580FF;stroke-width:2.0;" width="154" x="93" y="43"/><ellipse cx="109" cy="60" fill="#B4A7E5" rx="12" ry="12" style="stroke:#181818;stroke-width:1.0;"/><path d="M110,56.1719 L110,64 L112.0313,64 Q112.75,64 113.0469,64.2813 Q113.3594,64.5469 113.3594,65 Q113.3594,65.4375 113.0469,65.7188 Q112.75,66 112.0313,66 L105.9844,66 Q105.25,66 104.9375,65.7188 Q104.6406,65.4375 104.6406,65 Q104.6406,64.5469 104.9375,64.2813 Q105.25,64 105.9844,64 L108,64 L108,56.1719 L105.9844,56.1719 Q105.25,56.1719 104.9375,55.8906 Q104.6406,55.6094 104.6406,55.1563 Q104.6406,54.7031 104.9375,54.4375 Q105.25,54.1563 105.9844,54.1563 L112.0313,54.1563 Q112.75,54.1563 113.0469,54.4375 Q113.3594,54.7031 113.3594,55.1563 Q113.3594,55.6094 113.0469,55.8906 Q112.75,56.1719 112.0313,56.1719 L110,56.1719 Z " fill="#FF80BF"/><text fill="#8AFF80" font-family="Fira Mono" font-size="20" font-style="italic" lengthAdjust="spacing" textLength="120" x="124" y="66.7">Collection</text><line style="stroke:#9580FF;stroke-width:2.0;" x1="94" x2="246" y1="77" y2="77"/><line style="stroke:#9580FF;stroke-width:2.0;" x1="94" x2="246" y1="85" y2="85"/></g><!--MD5=[ab8871ed637f40707b866ba6597734bc]
class ArrayList--><g id="elem_ArrayList"><rect codeLine="16" fill="#22212C" height="98" id="ArrayList" rx="10" ry="10" style="stroke:#9580FF;stroke-width:2.0;" width="252" x="425" y="421"/><rect fill="#454158" height="34" rx="10" ry="10" style="stroke:#454158;stroke-width:2.0;" width="252" x="425" y="421"/><rect fill="#454158" height="10" style="stroke:#454158;stroke-width:2.0;" width="252" x="425" y="445"/><rect codeLine="16" fill="none" height="98" id="ArrayList" rx="10" ry="10" style="stroke:#9580FF;stroke-width:2.0;" width="252" x="425" y="421"/><ellipse cx="492.5" cy="438" fill="#ADD1B2" rx="12" ry="12" style="stroke:#181818;stroke-width:1.0;"/><path d="M494.6406,432.9219 Q494.8281,432.6719 495.0469,432.5469 Q495.2656,432.4063 495.5156,432.4063 Q495.9531,432.4063 496.2344,432.7188 Q496.5156,433.0156 496.5156,433.7344 L496.5156,435.4375 Q496.5156,436.1563 496.2344,436.4688 Q495.9531,436.7813 495.5156,436.7813 Q495.125,436.7813 494.875,436.5469 Q494.625,436.3281 494.5156,435.7188 Q494.4531,435.2969 494.2344,435.0781 Q493.8438,434.6406 493.125,434.375 Q492.4063,434.1094 491.6875,434.1094 Q490.7813,434.1094 490.0313,434.5 Q489.2813,434.8906 488.7031,435.7813 Q488.125,436.6563 488.125,437.8594 L488.125,439.1563 Q488.125,440.6094 489.1719,441.5781 Q490.2344,442.5469 492.0938,442.5469 Q493.2031,442.5469 493.9844,442.2344 Q494.4219,442.0625 494.9375,441.5469 Q495.25,441.2344 495.4219,441.1406 Q495.5938,441.0469 495.8281,441.0469 Q496.2188,441.0469 496.5156,441.3594 Q496.8281,441.6563 496.8281,442.0625 Q496.8281,442.4688 496.4219,442.9375 Q495.8281,443.625 494.8906,444.0156 Q493.625,444.5469 492.1094,444.5469 Q490.3281,444.5469 488.9063,443.8125 Q487.75,443.2188 486.9375,441.9531 Q486.125,440.6875 486.125,439.2031 L486.125,437.8438 Q486.125,436.2813 486.8438,434.9375 Q487.5781,433.5781 488.8594,432.8438 Q490.1563,432.1094 491.6094,432.1094 Q492.4688,432.1094 493.2188,432.3125 Q493.9844,432.5156 494.6406,432.9219 Z " fill="#FF80BF"/><text fill="#8AFF80" font-family="Fira Mono" font-size="20" lengthAdjust="spacing" textLength="108" x="514.5" y="444.7">ArrayList</text><line style="stroke:#9580FF;stroke-width:2.0;" x1="426" x2="676" y1="455" y2="455"/><text fill="#8AFF80" font-family="Fira Mono" font-size="20" lengthAdjust="spacing" textLength="240" x="431" y="477.7">Object[] elementData</text><line style="stroke:#9580FF;stroke-width:2.0;" x1="426" x2="676" y1="487" y2="487"/><text fill="#8AFF80" font-family="Fira Mono" font-size="20" lengthAdjust="spacing" textLength="72" x="431" y="509.7">size()</text></g><!--MD5=[15b68e006199004da79ea2a4d117d8e9]
class TimeUnit--><g id="elem_TimeUnit"><rect codeLine="21" fill="#22212C" height="121.9999" id="TimeUnit" rx="10" ry="10" style="stroke:#9580FF;stroke-width:2.0;" width="130" x="754" y="7"/><rect fill="#454158" height="34" rx="10" ry="10" style="stroke:#454158;stroke-width:2.0;" width="130" x="754" y="7"/><rect fill="#454158" height="10" style="stroke:#454158;stroke-width:2.0;" width="130" x="754" y="31"/><rect codeLine="21" fill="none" height="121.9999" id="TimeUnit" rx="10" ry="10" style="stroke:#9580FF;stroke-width:2.0;" width="130" x="754" y="7"/><ellipse cx="770" cy="24" fill="#EB937F" rx="12" ry="12" style="stroke:#181818;stroke-width:1.0;"/><path d="M767.9531,25.0625 L767.9531,28 L773.0469,28 L773.0469,26.9063 Q773.0469,26.1875 773.3281,25.8906 Q773.6094,25.5781 774.0625,25.5781 Q774.5,25.5781 774.7813,25.8906 Q775.0625,26.1875 775.0625,26.9063 L775.0625,30 L765.625,30 Q764.9063,30 764.5938,29.7188 Q764.2969,29.4375 764.2969,29 Q764.2969,28.5469 764.6094,28.2813 Q764.9219,28 765.625,28 L765.9375,28 L765.9375,20.1719 L765.625,20.1719 Q764.9063,20.1719 764.5938,19.8906 Q764.2969,19.6094 764.2969,19.1563 Q764.2969,18.7031 764.5938,18.4375 Q764.9063,18.1563 765.625,18.1563 L774.6094,18.1563 L774.6094,21.2031 Q774.6094,21.9219 774.3281,22.2344 Q774.0625,22.5313 773.625,22.5313 Q773.1719,22.5313 772.8906,22.2344 Q772.6094,21.9375 772.6094,21.2031 L772.6094,20.1719 L767.9531,20.1719 L767.9531,23.0625 L769.7031,23.0625 Q769.7031,22.2813 769.8438,22.0469 Q770.1563,21.5781 770.7031,21.5781 Q771.1563,21.5781 771.4219,21.8906 Q771.7031,22.1875 771.7031,22.9063 L771.7031,25.2188 Q771.7031,25.875 771.5469,26.0938 Q771.2344,26.5469 770.7031,26.5469 Q770.1563,26.5469 769.8438,26.0781 Q769.7031,25.8438 769.7031,25.0625 L767.9531,25.0625 Z " fill="#FF80BF"/><text fill="#8AFF80" font-family="Fira Mono" font-size="20" lengthAdjust="spacing" textLength="96" x="785" y="30.7">TimeUnit</text><line style="stroke:#9580FF;stroke-width:2.0;" x1="755" x2="883" y1="41" y2="41"/><text fill="#8AFF80" font-family="Fira Mono" font-size="20" lengthAdjust="spacing" textLength="48" x="760" y="63.7">DAYS</text><text fill="#8AFF80" font-family="Fira Mono" font-size="20" lengthAdjust="spacing" textLength="60" x="760" y="87.7">HOURS</text><text fill="#8AFF80" font-family="Fira Mono" font-size="20" lengthAdjust="spacing" textLength="84" x="760" y="111.6999">MINUTES</text><line style="stroke:#9580FF;stroke-width:2.0;" x1="755" x2="883" y1="120.9999" y2="120.9999"/></g><!--MD5=[0c8287f799745f7b534bf75518604c1e]
class SuppressWarnings--><g id="elem_SuppressWarnings"><rect codeLine="27" fill="#22212C" height="50" id="SuppressWarnings" rx="10" ry="10" style="stroke:#9580FF;stroke-width:2.0;" width="226" x="919" y="43"/><rect fill="#454158" height="34" rx="10" ry="10" style="stroke:#454158;stroke-width:2.0;" width="226" x="919" y="43"/><rect fill="#454158" height="10" style="stroke:#454158;stroke-width:2.0;" width="226" x="919" y="67"/><rect codeLine="27" fill="none" height="50" id="SuppressWarnings" rx="10" ry="10" style="stroke:#9580FF;stroke-width:2.0;" width="226" x="919" y="43"/><ellipse cx="935" cy="60" fill="#E3664A" rx="12" ry="12" style="stroke:#181818;stroke-width:1.0;"/><path d="M937.0469,57.2656 L937.0469,56.6563 Q937.0469,55.6875 936.4844,55.1094 Q935.9219,54.5156 935.0469,54.5156 Q934.3438,54.5156 933.7188,54.9844 Q933.1094,55.4375 932.7969,56.1719 Q932.2344,57.4688 932.2344,58.7656 L932.2344,61.7344 Q932.2344,64 933.25,65.3281 Q933.9063,66.2031 935.1094,66.2031 Q935.7344,66.2031 936.2656,66.0313 Q936.7969,65.8594 937.0938,65.5781 Q937.3906,65.2813 937.6406,65.2813 Q937.9531,65.2813 938.1719,65.5 Q938.3906,65.7188 938.3906,66.0469 Q938.3906,66.5313 937.7188,67 Q936.7344,67.6563 935.0469,67.6563 Q933.75,67.6563 932.9219,67.0781 Q931.8281,66.3125 931.2969,64.8281 Q930.7656,63.3438 930.7656,61.875 L930.7656,58.6719 Q930.7656,56.3281 931.9219,54.6875 Q933.0781,53.0469 935.0156,53.0469 Q935.8906,53.0469 936.6563,53.4063 Q937.4219,53.7656 937.9688,54.6719 Q938.5156,55.5625 938.5156,56.6563 L938.5156,62 Q938.9531,62.1875 938.9531,62.6563 Q938.9531,62.9844 938.7188,63.2031 Q938.4844,63.4063 937.9219,63.4063 L937.0469,63.4063 L937.0469,63.3594 Q936.5938,63.4219 936.375,63.4219 Q935.2031,63.4219 934.3281,62.5625 Q933.4531,61.6875 933.4531,60.5156 Q933.4531,59.2656 934.4063,58.3281 Q935.375,57.375 937.0469,57.2656 Z M937.0469,58.7813 Q936.0156,58.875 935.4688,59.3906 Q934.9219,59.8906 934.9219,60.5313 Q934.9219,61.0938 935.375,61.5 Q935.8281,61.9063 936.5625,61.9063 Q936.7188,61.9063 937.0469,61.875 L937.0469,58.7813 Z " fill="#FF80BF"/><text fill="#8AFF80" font-family="Fira Mono" font-size="20" lengthAdjust="spacing" textLength="192" x="950" y="66.7">SuppressWarnings</text><line style="stroke:#9580FF;stroke-width:2.0;" x1="920" x2="1144" y1="77" y2="77"/><line style="stroke:#9580FF;stroke-width:2.0;" x1="920" x2="1144" y1="85" y2="85"/></g><!--MD5=[faebc81c07309c527f2fda51bf6b78ab]
class Annotation--><g id="elem_Annotation"><rect codeLine="29" fill="#22212C" height="121.9999" id="Annotation" rx="10" ry="10" style="stroke:#9580FF;stroke-width:2.0;" width="288" x="675" y="214"/><rect fill="#454158" height="34" rx="10" ry="10" style="stroke:#454158;stroke-width:2.0;" width="288" x="675" y="214"/><rect fill="#454158" height="10" style="stroke:#454158;stroke-width:2.0;" width="288" x="675" y="238"/><rect codeLine="29" fill="none" height="121.9999" id="Annotation" rx="10" ry="10" style="stroke:#9580FF;stroke-width:2.0;" width="288" x="675" y="214"/><ellipse cx="754.5" cy="231" fill="#E3664A" rx="12" ry="12" style="stroke:#181818;stroke-width:1.0;"/><path d="M756.5469,228.2656 L756.5469,227.6563 Q756.5469,226.6875 755.9844,226.1094 Q755.4219,225.5156 754.5469,225.5156 Q753.8438,225.5156 753.2188,225.9844 Q752.6094,226.4375 752.2969,227.1719 Q751.7344,228.4688 751.7344,229.7656 L751.7344,232.7344 Q751.7344,235 752.75,236.3281 Q753.4063,237.2031 754.6094,237.2031 Q755.2344,237.2031 755.7656,237.0313 Q756.2969,236.8594 756.5938,236.5781 Q756.8906,236.2813 757.1406,236.2813 Q757.4531,236.2813 757.6719,236.5 Q757.8906,236.7188 757.8906,237.0469 Q757.8906,237.5313 757.2188,238 Q756.2344,238.6563 754.5469,238.6563 Q753.25,238.6563 752.4219,238.0781 Q751.3281,237.3125 750.7969,235.8281 Q750.2656,234.3438 750.2656,232.875 L750.2656,229.6719 Q750.2656,227.3281 751.4219,225.6875 Q752.5781,224.0469 754.5156,224.0469 Q755.3906,224.0469 756.1563,224.4063 Q756.9219,224.7656 757.4688,225.6719 Q758.0156,226.5625 758.0156,227.6563 L758.0156,233 Q758.4531,233.1875 758.4531,233.6563 Q758.4531,233.9844 758.2188,234.2031 Q757.9844,234.4063 757.4219,234.4063 L756.5469,234.4063 L756.5469,234.3594 Q756.0938,234.4219 755.875,234.4219 Q754.7031,234.4219 753.8281,233.5625 Q752.9531,232.6875 752.9531,231.5156 Q752.9531,230.2656 753.9063,229.3281 Q754.875,228.375 756.5469,228.2656 Z M756.5469,229.7813 Q755.5156,229.875 754.9688,230.3906 Q754.4219,230.8906 754.4219,231.5313 Q754.4219,232.0938 754.875,232.5 Q755.3281,232.9063 756.0625,232.9063 Q756.2188,232.9063 756.5469,232.875 L756.5469,229.7813 Z " fill="#FF80BF"/><text fill="#8AFF80" font-family="Fira Mono" font-size="20" lengthAdjust="spacing" textLength="120" x="776.5" y="237.7">Annotation</text><line style="stroke:#9580FF;stroke-width:2.0;" x1="676" x2="962" y1="248" y2="248"/><text fill="#8AFF80" font-family="Fira Mono" font-size="20" lengthAdjust="spacing" textLength="276" x="681" y="270.7">annotation with members</text><line style="stroke:#9580FF;stroke-width:2.0;" x1="676" x2="962" y1="280" y2="280"/><text fill="#8AFF80" font-family="Fira Mono" font-size="20" lengthAdjust="spacing" textLength="144" x="681" y="302.7">String foo()</text><text fill="#8AFF80" font-family="Fira Mono" font-size="20" lengthAdjust="spacing" textLength="144" x="681" y="326.6999">String bar()</text></g><!--MD5=[00308d07b6a5721fb0cf5861877e6652]
reverse link List to AbstractList--><g id="link_List_AbstractList"><path codeLine="9" d="M498.24,112.58 C511.91,154.38 532.04,215.98 543.06,249.71 " fill="none" id="List-backto-AbstractList" style="stroke:#FF80BF;stroke-width:1.0;"/><polygon fill="none" points="491.51,114.51,491.95,93.32,504.82,110.16,491.51,114.51" style="stroke:#FF80BF;stroke-width:1.0;"/><text fill="#FF80BF" font-family="Fira Mono" font-size="20" lengthAdjust="spacing" textLength="156" x="523" y="178.7">AList to List</text></g><!--MD5=[1822909749df1453bdd84de7a60a3406]
reverse link Collection to AbstractCollection--><g id="link_Collection_AbstractCollection"><path codeLine="10" d="M161.81,113.16 C154.07,154.94 142.73,216.13 136.5,249.71 " fill="none" id="Collection-backto-AbstractCollection" style="stroke:#FF80BF;stroke-width:1.0;"/><polygon fill="none" points="154.96,111.71,165.49,93.32,168.73,114.26,154.96,111.71" style="stroke:#FF80BF;stroke-width:1.0;"/><text fill="#FF80BF" font-family="Fira Mono" font-size="20" lengthAdjust="spacing" textLength="156" x="155" y="178.7">AColl to Coll</text></g><!--MD5=[0159284274f96a472eb2618ad803aaca]
reverse link Collection to List--><g id="link_Collection_List"><path codeLine="12" d="M267.43,68 C326.32,68 398.34,68 442.69,68 " fill="none" id="Collection-backto-List" style="stroke:#FF80BF;stroke-width:1.0;"/><polygon fill="none" points="267.22,75,247.22,68,267.22,61,267.22,75" style="stroke:#FF80BF;stroke-width:1.0;"/><text fill="#FF80BF" font-family="Fira Mono" font-size="20" lengthAdjust="spacing" textLength="144" x="273" y="59.7">List to Coll</text></g><!--MD5=[7a3a52e8f65ef1a8d8d29530ea5cd870]
reverse link AbstractCollection to AbstractList--><g id="link_AbstractCollection_AbstractList"><path codeLine="13" d="M277.18,275 C338.56,275 408.08,275 461.72,275 " fill="none" id="AbstractCollection-backto-AbstractList" style="stroke:#FF80BF;stroke-width:1.0;"/><polygon fill="none" points="277.15,282,257.15,275,277.15,268,277.15,282" style="stroke:#FF80BF;stroke-width:1.0;"/><text fill="#FF80BF" font-family="Fira Mono" font-size="20" lengthAdjust="spacing" textLength="168" x="275.5" y="266.7">AList to AColl</text></g><!--MD5=[40e4bb1af59cca28d4643aaff05088cc]
reverse link AbstractList to ArrayList--><g id="link_AbstractList_ArrayList"><path codeLine="14" d="M551,320.41 C551,350.45 551,390.12 551,420.91 " fill="none" id="AbstractList-backto-ArrayList" style="stroke:#FF80BF;stroke-width:1.0;"/><polygon fill="none" points="544,320.05,551,300.05,558,320.05,544,320.05" style="stroke:#FF80BF;stroke-width:1.0;"/><text fill="#FF80BF" font-family="Fira Mono" font-size="20" lengthAdjust="spacing" textLength="180" x="552" y="385.7">ArList to AList</text></g><!--MD5=[d3026fcd4f340f46e72ff3e2da8d21b3]
@startuml

!include ../theme.puml

abstract class AbstractList
abstract AbstractCollection
interface List
interface Collection

List <|- - AbstractList : AList to List
Collection <|- - AbstractCollection : AColl to Coll

Collection <|- List : List to Coll
AbstractCollection <|- AbstractList : AList to AColl
AbstractList <|- - ArrayList : ArList to AList

class ArrayList {
  Object[] elementData
  size()
}

enum TimeUnit {
  DAYS
  HOURS
  MINUTES
}

annotation SuppressWarnings

annotation Annotation {
  annotation with members
  String foo()
  String bar()
}

@enduml

@startuml






skinparam backgroundColor #22212C

skinparam {
  DefaultFontColor #FF80BF
  DefaultFontName Fira Mono
  DefaultFontSize 20

  

  ActivityBackgroundColor        #454158
  ActivityBarColor               #F8F8F2
  ActivityBorderColor            #8AFF80
  ActivityDiamondBackgroundColor #454158
  ActivityDiamondBorderColor     #8AFF80
  ActivityEndColor               #FF9580
  ActivityStartColor             #8AFF80
  ActivityStopColor              #FF9580

  ActorBackgroundColor        #454158
  ActorBorderColor            #8AFF80
  ActorStereotypeFontColor    #F8F8F2

  AgentBackgroundColor       #454158
  AgentBorderColor           #8AFF80

  
  ArrowColor #8AFF80

  ArtifactBackgroundColor     #454158
  ArtifactBorderColor         #8AFF80

  BackgroundColor #22212C
  

  BoundaryBackgroundColor     #454158
  BoundaryBorderColor         #8AFF80
  BoundaryStereotypeFontColor #F8F8F2

  
  CaptionFontColor #F8F8F2
  CaptionFontSize 15

  CardBackgroundColor     #454158
  CardBorderColor         #8AFF80
  

  ClassAttributeFontColor #8AFF80

  ClassBackgroundColor   #22212C
  ClassBorderColor       #9580FF
  ClassBorderThickness	 2
	ClassArrowColor				 #FF80BF
  ClassFontColor 				 #8AFF80
  ClassFontSize 				 20
  
  ClassHeaderBackgroundColor #454158


  CloudBackgroundColor        #454158
  CloudBorderColor            #8AFF80
  
  CollectionsBackgroundColor #454158
  CollectionsBorderColor     #8AFF80

  
  ComponentBackgroundColor       #454158
  ComponentBorderColor           #8AFF80



  ControlBackgroundColor #454158
  ControlBorderColor     #8AFF80
  ControlFontColor       #F8F8F2
  ControlStereotypeFontColor #F8F8F2

  DatabaseBackgroundColor       #454158
  DatabaseBorderColor           #8AFF80

  

  


  EntityBackgroundColor #454158
  EntityBorderColor     #8AFF80
  

  FileBackgroundColor #454158
  FileBorderColor     #8AFF80


 
  FolderBackgroundColor #454158
  FolderBorderColor     #8AFF80
  

  FrameBackgroundColor       #454158
  FrameBorderColor           #8AFF80

  HexagonBackgroundColor #454158
  HexagonBorderColor     #8AFF80


  InterfaceBackgroundColor       #454158
  InterfaceBorderColor           #8AFF80

  LegendBackgroundColor   #454158
  LegendBorderColor       #F8F8F2

  
  NodeBackgroundColor       #454158
  NodeBorderColor           #8AFF80
  

  NoteBackgroundColor   #FFFF80
  NoteBorderColor       #22212C
  NoteFontColor         #22212C
  
  ObjectBackgroundColor       #454158
  ObjectBorderColor           #8AFF80
  
  PackageBackgroundColor       #22212C
  PackageBorderColor           #8AFF80

  
  ParticipantBackgroundColor #454158
  ParticipantBorderColor     #8AFF80
  
  PartitionBackgroundColor transparent
  PartitionBorderColor     #F8F8F2
  

  PersonBackgroundColor #454158
  PersonBorderColor     #8AFF80
  
  QueueBackgroundColor       #454158
  QueueBorderColor           #8AFF80
  
  
  RectangleBackgroundColor       #454158
  RectangleBorderColor           #8AFF80


  RoundCorner 20

  
  SequenceBoxBackgroundColor #454158
  SequenceBoxBorderColor     #8AFF80


  SequenceDividerBackgroundColor   #454158
  SequenceDividerBorderColor       #F8F8F2
  
  SequenceGroupBackgroundColor       #454158
  SequenceGroupBorderColor           #F8F8F2

  SequenceLifeLineBackgroundColor   #22212C
  SequenceLifeLineBorderColor       #8AFF80

  SequenceNewpageSeparatorColor  #F8F8F2
  
  
  SequenceReferenceBackgroundColor        transparent
  SequenceReferenceBorderColor            #F8F8F2
  SequenceReferenceHeaderBackgroundColor #454158

  
  Shadowing false

  StackBackgroundColor       #454158
  StackBorderColor           #8AFF80

  
  StateBackgroundColor    #454158
  StateBorderColor        #8AFF80
  StateEndColor           #FF9580
  StateStartColor         #8AFF80

  
  StorageBackgroundColor #454158
  StorageBorderColor     #F8F8F2
  
  
  SwimlaneBorderColor            #F8F8F2




  UsecaseBackgroundColor       #454158
  UsecaseBorderColor           #8AFF80
  
}


abstract class AbstractList
abstract AbstractCollection
interface List
interface Collection

List <|- - AbstractList : AList to List
Collection <|- - AbstractCollection : AColl to Coll

Collection <|- List : List to Coll
AbstractCollection <|- AbstractList : AList to AColl
AbstractList <|- - ArrayList : ArList to AList

class ArrayList {
  Object[] elementData
  size()
}

enum TimeUnit {
  DAYS
  HOURS
  MINUTES
}

annotation SuppressWarnings

annotation Annotation {
  annotation with members
  String foo()
  String bar()
}

@enduml

PlantUML version 1.2022.7(Mon Aug 22 13:01:30 EDT 2022)
(GPL source distribution)
Java Runtime: Java(TM) SE Runtime Environment
JVM: Java HotSpot(TM) 64-Bit Server VM
Default Encoding: UTF-8
Language: en
Country: CA
--></g></svg>