<?xml version="1.0" encoding="us-ascii" standalone="no"?><svg xmlns="http://www.w3.org/2000/svg" xmlns:xlink="http://www.w3.org/1999/xlink" contentStyleType="text/css" height="413px" preserveAspectRatio="none" style="width:810px;height:413px;background:#24273A;" version="1.1" viewBox="0 0 810 413" width="810px" zoomAndPan="magnify"><defs/><g><rect fill="#24273A" height="413" style="stroke:none;stroke-width:1.0;" width="810" x="0" y="0"/><!--class AbstractList--><g id="elem_AbstractList"><rect codeLine="4" fill="#24273A" height="46" id="AbstractList" rx="1.5" ry="1.5" style="stroke:#C6A0F6;stroke-width:2.0;" width="124" x="296.5" y="191"/><rect fill="#363A4F" height="30" rx="1.5" ry="1.5" style="stroke:#363A4F;stroke-width:2.0;" width="124" x="296.5" y="191"/><rect fill="#363A4F" height="1.5" style="stroke:#363A4F;stroke-width:2.0;" width="124" x="296.5" y="219.5"/><rect codeLine="4" fill="none" height="46" id="AbstractList" rx="1.5" ry="1.5" style="stroke:#C6A0F6;stroke-width:2.0;" width="124" x="296.5" y="191"/><ellipse cx="310.5" cy="206" fill="#A9DCDF" rx="10" ry="10" style="stroke:#181818;stroke-width:1.0;"/><path d="M310.1094,203.0781 L309.2969,206.6563 L310.9375,206.6563 L310.1094,203.0781 Z M309.0625,201.5 L311.1719,201.5 L313.5313,210.25 L311.7969,210.25 L311.2656,208.0938 L308.9531,208.0938 L308.4219,210.25 L306.6875,210.25 L309.0625,201.5 Z " fill="#CAD3F5"/><text fill="#A6DA95" font-family="Helvetica" font-size="16" font-style="italic" lengthAdjust="spacing" textLength="94" x="323.5" y="211.5391">AbstractList</text><line style="stroke:#C6A0F6;stroke-width:2.0;" x1="297.5" x2="419.5" y1="221" y2="221"/><line style="stroke:#C6A0F6;stroke-width:2.0;" x1="297.5" x2="419.5" y1="229" y2="229"/></g><!--class AbstractCollection--><g id="elem_AbstractCollection"><rect codeLine="5" fill="#24273A" height="46" id="AbstractCollection" rx="1.5" ry="1.5" style="stroke:#C6A0F6;stroke-width:2.0;" width="175" x="7" y="191"/><rect fill="#363A4F" height="30" rx="1.5" ry="1.5" style="stroke:#363A4F;stroke-width:2.0;" width="175" x="7" y="191"/><rect fill="#363A4F" height="1.5" style="stroke:#363A4F;stroke-width:2.0;" width="175" x="7" y="219.5"/><rect codeLine="5" fill="none" height="46" id="AbstractCollection" rx="1.5" ry="1.5" style="stroke:#C6A0F6;stroke-width:2.0;" width="175" x="7" y="191"/><ellipse cx="21" cy="206" fill="#A9DCDF" rx="10" ry="10" style="stroke:#181818;stroke-width:1.0;"/><path d="M20.6094,203.0781 L19.7969,206.6563 L21.4375,206.6563 L20.6094,203.0781 Z M19.5625,201.5 L21.6719,201.5 L24.0313,210.25 L22.2969,210.25 L21.7656,208.0938 L19.4531,208.0938 L18.9219,210.25 L17.1875,210.25 L19.5625,201.5 Z " fill="#CAD3F5"/><text fill="#A6DA95" font-family="Helvetica" font-size="16" font-style="italic" lengthAdjust="spacing" textLength="145" x="34" y="211.5391">AbstractCollection</text><line style="stroke:#C6A0F6;stroke-width:2.0;" x1="8" x2="181" y1="221" y2="221"/><line style="stroke:#C6A0F6;stroke-width:2.0;" x1="8" x2="181" y1="229" y2="229"/></g><!--class List--><g id="elem_List"><rect codeLine="6" fill="#24273A" height="46" id="List" rx="1.5" ry="1.5" style="stroke:#C6A0F6;stroke-width:2.0;" width="57" x="284" y="28"/><rect fill="#363A4F" height="30" rx="1.5" ry="1.5" style="stroke:#363A4F;stroke-width:2.0;" width="57" x="284" y="28"/><rect fill="#363A4F" height="1.5" style="stroke:#363A4F;stroke-width:2.0;" width="57" x="284" y="56.5"/><rect codeLine="6" fill="none" height="46" id="List" rx="1.5" ry="1.5" style="stroke:#C6A0F6;stroke-width:2.0;" width="57" x="284" y="28"/><ellipse cx="298" cy="43" fill="#B4A7E5" rx="10" ry="10" style="stroke:#181818;stroke-width:1.0;"/><path d="M295.0156,40.2813 L295.0156,38.75 L300.2188,38.75 L300.2188,40.2813 L298.4844,40.2813 L298.4844,45.9688 L300.2188,45.9688 L300.2188,47.5 L295.0156,47.5 L295.0156,45.9688 L296.75,45.9688 L296.75,40.2813 L295.0156,40.2813 Z " fill="#CAD3F5"/><text fill="#A6DA95" font-family="Helvetica" font-size="16" font-style="italic" lengthAdjust="spacing" textLength="27" x="311" y="48.5391">List</text><line style="stroke:#C6A0F6;stroke-width:2.0;" x1="285" x2="340" y1="58" y2="58"/><line style="stroke:#C6A0F6;stroke-width:2.0;" x1="285" x2="340" y1="66" y2="66"/></g><!--class Collection--><g id="elem_Collection"><rect codeLine="7" fill="#24273A" height="46" id="Collection" rx="1.5" ry="1.5" style="stroke:#C6A0F6;stroke-width:2.0;" width="108" x="67.5" y="28"/><rect fill="#363A4F" height="30" rx="1.5" ry="1.5" style="stroke:#363A4F;stroke-width:2.0;" width="108" x="67.5" y="28"/><rect fill="#363A4F" height="1.5" style="stroke:#363A4F;stroke-width:2.0;" width="108" x="67.5" y="56.5"/><rect codeLine="7" fill="none" height="46" id="Collection" rx="1.5" ry="1.5" style="stroke:#C6A0F6;stroke-width:2.0;" width="108" x="67.5" y="28"/><ellipse cx="81.5" cy="43" fill="#B4A7E5" rx="10" ry="10" style="stroke:#181818;stroke-width:1.0;"/><path d="M78.5156,40.2813 L78.5156,38.75 L83.7188,38.75 L83.7188,40.2813 L81.9844,40.2813 L81.9844,45.9688 L83.7188,45.9688 L83.7188,47.5 L78.5156,47.5 L78.5156,45.9688 L80.25,45.9688 L80.25,40.2813 L78.5156,40.2813 Z " fill="#CAD3F5"/><text fill="#A6DA95" font-family="Helvetica" font-size="16" font-style="italic" lengthAdjust="spacing" textLength="78" x="94.5" y="48.5391">Collection</text><line style="stroke:#C6A0F6;stroke-width:2.0;" x1="68.5" x2="174.5" y1="58" y2="58"/><line style="stroke:#C6A0F6;stroke-width:2.0;" x1="68.5" x2="174.5" y1="66" y2="66"/></g><!--class ArrayList--><g id="elem_ArrayList"><rect codeLine="16" fill="#24273A" height="73.9375" id="ArrayList" rx="1.5" ry="1.5" style="stroke:#C6A0F6;stroke-width:2.0;" width="142" x="287.5" y="333"/><rect fill="#363A4F" height="30" rx="1.5" ry="1.5" style="stroke:#363A4F;stroke-width:2.0;" width="142" x="287.5" y="333"/><rect fill="#363A4F" height="1.5" style="stroke:#363A4F;stroke-width:2.0;" width="142" x="287.5" y="361.5"/><rect codeLine="16" fill="none" height="73.9375" id="ArrayList" rx="1.5" ry="1.5" style="stroke:#C6A0F6;stroke-width:2.0;" width="142" x="287.5" y="333"/><ellipse cx="319.95" cy="348" fill="#ADD1B2" rx="10" ry="10" style="stroke:#181818;stroke-width:1.0;"/><path d="M321.7781,352.25 Q321.3719,352.4531 320.9188,352.5625 Q320.4656,352.6719 319.9813,352.6719 Q318.2,352.6719 317.2625,351.5156 Q316.3406,350.3438 316.3406,348.1406 Q316.3406,345.9219 317.2625,344.7656 Q318.2,343.5938 319.9813,343.5938 Q320.4656,343.5938 320.9188,343.7031 Q321.3875,343.7969 321.7781,344.0156 L321.7781,345.9375 Q321.3406,345.5313 320.9188,345.3438 Q320.4969,345.1406 320.0594,345.1406 Q319.1063,345.1406 318.6219,345.9063 Q318.1375,346.6563 318.1375,348.1406 Q318.1375,349.6094 318.6219,350.3594 Q319.1063,351.1094 320.0594,351.1094 Q320.4969,351.1094 320.9188,350.9219 Q321.3406,350.7344 321.7781,350.3281 L321.7781,352.25 Z " fill="#CAD3F5"/><text fill="#A6DA95" font-family="Helvetica" font-size="16" lengthAdjust="spacing" textLength="71" x="337.05" y="353.5391">ArrayList</text><line style="stroke:#C6A0F6;stroke-width:2.0;" x1="288.5" x2="428.5" y1="363" y2="363"/><text fill="#A6DA95" font-family="Helvetica" font-size="12" lengthAdjust="spacing" textLength="130" x="293.5" y="378.1387">Object[] elementData</text><line style="stroke:#C6A0F6;stroke-width:2.0;" x1="288.5" x2="428.5" y1="384.9688" y2="384.9688"/><text fill="#A6DA95" font-family="Helvetica" font-size="12" lengthAdjust="spacing" textLength="32" x="293.5" y="400.1074">size()</text></g><!--class TimeUnit--><g id="elem_TimeUnit"><rect codeLine="21" fill="#24273A" height="87.9063" id="TimeUnit" rx="1.5" ry="1.5" style="stroke:#C6A0F6;stroke-width:2.0;" width="102" x="488.5" y="7"/><rect fill="#363A4F" height="30" rx="1.5" ry="1.5" style="stroke:#363A4F;stroke-width:2.0;" width="102" x="488.5" y="7"/><rect fill="#363A4F" height="1.5" style="stroke:#363A4F;stroke-width:2.0;" width="102" x="488.5" y="35.5"/><rect codeLine="21" fill="none" height="87.9063" id="TimeUnit" rx="1.5" ry="1.5" style="stroke:#C6A0F6;stroke-width:2.0;" width="102" x="488.5" y="7"/><ellipse cx="502.5" cy="22" fill="#EB937F" rx="10" ry="10" style="stroke:#181818;stroke-width:1.0;"/><path d="M504.9375,26.5 L499.4844,26.5 L499.4844,17.75 L504.9375,17.75 L504.9375,19.2813 L501.2188,19.2813 L501.2188,21.1563 L504.5781,21.1563 L504.5781,22.6875 L501.2188,22.6875 L501.2188,24.9688 L504.9375,24.9688 L504.9375,26.5 Z " fill="#CAD3F5"/><text fill="#A6DA95" font-family="Helvetica" font-size="16" lengthAdjust="spacing" textLength="72" x="515.5" y="27.5391">TimeUnit</text><line style="stroke:#C6A0F6;stroke-width:2.0;" x1="489.5" x2="589.5" y1="37" y2="37"/><text fill="#A6DA95" font-family="Helvetica" font-size="12" lengthAdjust="spacing" textLength="32" x="494.5" y="52.1387">DAYS</text><text fill="#A6DA95" font-family="Helvetica" font-size="12" lengthAdjust="spacing" textLength="43" x="494.5" y="66.1074">HOURS</text><text fill="#A6DA95" font-family="Helvetica" font-size="12" lengthAdjust="spacing" textLength="55" x="494.5" y="80.0762">MINUTES</text><line style="stroke:#C6A0F6;stroke-width:2.0;" x1="489.5" x2="589.5" y1="86.9063" y2="86.9063"/></g><!--class SuppressWarnings--><g id="elem_SuppressWarnings"><rect codeLine="27" fill="#24273A" height="46" id="SuppressWarnings" rx="1.5" ry="1.5" style="stroke:#C6A0F6;stroke-width:2.0;" width="178" x="625.5" y="28"/><rect fill="#363A4F" height="30" rx="1.5" ry="1.5" style="stroke:#363A4F;stroke-width:2.0;" width="178" x="625.5" y="28"/><rect fill="#363A4F" height="1.5" style="stroke:#363A4F;stroke-width:2.0;" width="178" x="625.5" y="56.5"/><rect codeLine="27" fill="none" height="46" id="SuppressWarnings" rx="1.5" ry="1.5" style="stroke:#C6A0F6;stroke-width:2.0;" width="178" x="625.5" y="28"/><ellipse cx="639.5" cy="43" fill="#E3664A" rx="10" ry="10" style="stroke:#181818;stroke-width:1.0;"/><path d="M640.7031,42.8125 Q640.7031,42.1406 640.4063,41.7656 Q640.1094,41.3906 639.5781,41.3906 Q639.0625,41.3906 638.7656,41.7656 Q638.4688,42.1406 638.4688,42.8125 Q638.4688,43.4688 638.7656,43.8438 Q639.0625,44.2188 639.5781,44.2188 Q640.1094,44.2188 640.4063,43.8438 Q640.7031,43.4688 640.7031,42.8125 Z M641.7969,45.2031 L640.6406,45.2031 L640.6406,44.7344 Q640.4219,45.0313 640.1094,45.1875 Q639.8125,45.3281 639.3906,45.3281 Q638.4375,45.3281 637.8438,44.6406 Q637.25,43.9375 637.25,42.8125 Q637.25,41.6719 637.8281,40.9844 Q638.4219,40.2969 639.3906,40.2969 Q639.8125,40.2969 640.125,40.4375 Q640.4375,40.5781 640.6406,40.8594 L640.6406,40.625 Q640.6406,39.8281 640.2031,39.3906 Q639.7656,38.9531 638.9688,38.9531 Q637.75,38.9531 636.9688,40.0313 Q636.2031,41.0938 636.2031,42.8125 Q636.2031,44.6094 637.0938,45.6875 Q637.9844,46.75 639.4688,46.75 Q639.9375,46.75 640.375,46.6094 Q640.8125,46.4688 641.2188,46.1875 L641.75,47.2188 Q641.2813,47.5469 640.7188,47.7031 Q640.1563,47.875 639.5313,47.875 Q637.4688,47.875 636.25,46.5 Q635.0313,45.1406 635.0313,42.8125 Q635.0313,40.5469 636.125,39.1875 Q637.2344,37.8281 639.0313,37.8281 Q640.3125,37.8281 641.0469,38.5938 Q641.7969,39.3594 641.7969,40.7031 L641.7969,45.2031 Z " fill="#CAD3F5"/><text fill="#A6DA95" font-family="Helvetica" font-size="16" lengthAdjust="spacing" textLength="148" x="652.5" y="48.5391">SuppressWarnings</text><line style="stroke:#C6A0F6;stroke-width:2.0;" x1="626.5" x2="802.5" y1="58" y2="58"/><line style="stroke:#C6A0F6;stroke-width:2.0;" x1="626.5" x2="802.5" y1="66" y2="66"/></g><!--class Annotation--><g id="elem_Annotation"><rect codeLine="29" fill="#24273A" height="87.9063" id="Annotation" rx="1.5" ry="1.5" style="stroke:#C6A0F6;stroke-width:2.0;" width="168" x="455.5" y="170"/><rect fill="#363A4F" height="30" rx="1.5" ry="1.5" style="stroke:#363A4F;stroke-width:2.0;" width="168" x="455.5" y="170"/><rect fill="#363A4F" height="1.5" style="stroke:#363A4F;stroke-width:2.0;" width="168" x="455.5" y="198.5"/><rect codeLine="29" fill="none" height="87.9063" id="Annotation" rx="1.5" ry="1.5" style="stroke:#C6A0F6;stroke-width:2.0;" width="168" x="455.5" y="170"/><ellipse cx="492.45" cy="185" fill="#E3664A" rx="10" ry="10" style="stroke:#181818;stroke-width:1.0;"/><path d="M493.6531,184.8125 Q493.6531,184.1406 493.3563,183.7656 Q493.0594,183.3906 492.5281,183.3906 Q492.0125,183.3906 491.7156,183.7656 Q491.4188,184.1406 491.4188,184.8125 Q491.4188,185.4688 491.7156,185.8438 Q492.0125,186.2188 492.5281,186.2188 Q493.0594,186.2188 493.3563,185.8438 Q493.6531,185.4688 493.6531,184.8125 Z M494.7469,187.2031 L493.5906,187.2031 L493.5906,186.7344 Q493.3719,187.0313 493.0594,187.1875 Q492.7625,187.3281 492.3406,187.3281 Q491.3875,187.3281 490.7938,186.6406 Q490.2,185.9375 490.2,184.8125 Q490.2,183.6719 490.7781,182.9844 Q491.3719,182.2969 492.3406,182.2969 Q492.7625,182.2969 493.075,182.4375 Q493.3875,182.5781 493.5906,182.8594 L493.5906,182.625 Q493.5906,181.8281 493.1531,181.3906 Q492.7156,180.9531 491.9188,180.9531 Q490.7,180.9531 489.9188,182.0313 Q489.1531,183.0938 489.1531,184.8125 Q489.1531,186.6094 490.0438,187.6875 Q490.9344,188.75 492.4188,188.75 Q492.8875,188.75 493.325,188.6094 Q493.7625,188.4688 494.1688,188.1875 L494.7,189.2188 Q494.2313,189.5469 493.6688,189.7031 Q493.1063,189.875 492.4813,189.875 Q490.4188,189.875 489.2,188.5 Q487.9813,187.1406 487.9813,184.8125 Q487.9813,182.5469 489.075,181.1875 Q490.1844,179.8281 491.9813,179.8281 Q493.2625,179.8281 493.9969,180.5938 Q494.7469,181.3594 494.7469,182.7031 L494.7469,187.2031 Z " fill="#CAD3F5"/><text fill="#A6DA95" font-family="Helvetica" font-size="16" lengthAdjust="spacing" textLength="87" x="510.55" y="190.5391">Annotation</text><line style="stroke:#C6A0F6;stroke-width:2.0;" x1="456.5" x2="622.5" y1="200" y2="200"/><text fill="#A6DA95" font-family="Helvetica" font-size="12" lengthAdjust="spacing" textLength="156" x="461.5" y="215.1387">annotation with members</text><line style="stroke:#C6A0F6;stroke-width:2.0;" x1="456.5" x2="622.5" y1="221.9688" y2="221.9688"/><text fill="#A6DA95" font-family="Helvetica" font-size="12" lengthAdjust="spacing" textLength="69" x="461.5" y="237.1074">String foo()</text><text fill="#A6DA95" font-family="Helvetica" font-size="12" lengthAdjust="spacing" textLength="71" x="461.5" y="251.0762">String bar()</text></g><!--reverse link List to AbstractList--><g id="link_List_AbstractList"><path codeLine="9" d="M323.7435,91.3579 C332.5235,122.0979 343.42,160.22 352.2,190.96 " fill="none" id="List-backto-AbstractList" style="stroke:#F5BDE6;stroke-width:1.0;"/><polygon fill="none" points="318.8,74.05,317.9742,93.0057,329.5128,89.71,318.8,74.05" style="stroke:#F5BDE6;stroke-width:1.0;"/><text fill="#CAD3F5" font-family="Helvetica" font-size="12" lengthAdjust="spacing" textLength="70" x="338.5" y="137.1387">AList to List</text></g><!--reverse link Collection to AbstractCollection--><g id="link_Collection_AbstractCollection"><path codeLine="10" d="M114.8258,91.8026 C109.6758,122.5426 103.35,160.22 98.2,190.96 " fill="none" id="Collection-backto-AbstractCollection" style="stroke:#F5BDE6;stroke-width:1.0;"/><polygon fill="none" points="117.8,74.05,108.9083,90.8112,120.7434,92.794,117.8,74.05" style="stroke:#F5BDE6;stroke-width:1.0;"/><text fill="#CAD3F5" font-family="Helvetica" font-size="12" lengthAdjust="spacing" textLength="70" x="110.5" y="137.1387">AColl to Coll</text></g><!--reverse link Collection to List--><g id="link_Collection_List"><path codeLine="12" d="M193.72,51 C228.9,51 255.34,51 283.84,51 " fill="none" id="Collection-backto-List" style="stroke:#F5BDE6;stroke-width:1.0;"/><polygon fill="none" points="175.72,51,193.72,57,193.72,45,175.72,51" style="stroke:#F5BDE6;stroke-width:1.0;"/><text fill="#CAD3F5" font-family="Helvetica" font-size="12" lengthAdjust="spacing" textLength="62" x="198.75" y="45.1387">List to Coll</text></g><!--reverse link AbstractCollection to AbstractList--><g id="link_AbstractCollection_AbstractList"><path codeLine="13" d="M200.04,214 C237.41,214 262.17,214 296.24,214 " fill="none" id="AbstractCollection-backto-AbstractList" style="stroke:#F5BDE6;stroke-width:1.0;"/><polygon fill="none" points="182.04,214,200.04,220,200.04,208,182.04,214" style="stroke:#F5BDE6;stroke-width:1.0;"/><text fill="#CAD3F5" font-family="Helvetica" font-size="12" lengthAdjust="spacing" textLength="78" x="200.25" y="208.1387">AList to AColl</text></g><!--reverse link AbstractList to ArrayList--><g id="link_AbstractList_ArrayList"><path codeLine="14" d="M358.5,255.06 C358.5,280.02 358.5,303.02 358.5,332.71 " fill="none" id="AbstractList-backto-ArrayList" style="stroke:#F5BDE6;stroke-width:1.0;"/><polygon fill="none" points="358.5,237.06,352.5,255.06,364.5,255.06,358.5,237.06" style="stroke:#F5BDE6;stroke-width:1.0;"/><text fill="#CAD3F5" font-family="Helvetica" font-size="12" lengthAdjust="spacing" textLength="83" x="359.5" y="300.1387">ArList to AList</text></g><!--SRC=[TP1BJyCm48Jl_XNB3GvDxuXBH950ebGYZH1273RfbXhv4TaR8Lx_7TlD4y5fiplVJ4O-aQPMxOuWovPy84rPqseb15QU7TOCjKBl8U_MM-bvrFhhfLMAQfRM26cOt1vhWeIEwuGHKOABhyLYbWldaAV9zcWUBNDuSW-Mk4LBdEAN1xhSFZOnVyH4zByg-SmqgUuSllUm6-ZKN7IlDY2V0c1JlORVFJq3gV3EXbV86CvUVj3fcVWMWaohOIirbKOUBQlyiGZZUbFUnxc-kIktLqLaqHZBcCeNRTCuylu1dP7cnS_4VFoCWHFbJV81DEcAd0zAmIwOOMzjA3Ei5RhKxGS0]--></g></svg>