<?xml version="1.0" encoding="us-ascii" standalone="no"?><svg xmlns="http://www.w3.org/2000/svg" xmlns:xlink="http://www.w3.org/1999/xlink" contentStyleType="text/css" height="547px" preserveAspectRatio="none" style="width:475px;height:547px;background:#24273A;" version="1.1" viewBox="0 0 475 547" width="475px" zoomAndPan="magnify"><defs/><g><rect fill="#24273A" height="547" style="stroke:none;stroke-width:1.0;" width="475" x="0" y="0"/><!--cluster Some Group--><g id="cluster_Some Group"><path d="M7.5,6 L94.5,6 A2.25,2.25 0 0 1 96,7.5 L103,25.9688 L426.5,25.9688 A1.5,1.5 0 0 1 428,27.4688 L428,96.5 A1.5,1.5 0 0 1 426.5,98 L7.5,98 A1.5,1.5 0 0 1 6,96.5 L6,7.5 A1.5,1.5 0 0 1 7.5,6 " fill="#24273A" style="stroke:#CAD3F5;stroke-width:1.5;"/><line style="stroke:#CAD3F5;stroke-width:1.5;" x1="6" x2="103" y1="25.9688" y2="25.9688"/><text fill="#CAD3F5" font-family="Helvetica" font-size="12" font-weight="bold" lengthAdjust="spacing" textLength="84" x="10" y="19.1387">Some Group</text></g><!--cluster Other Groups--><g id="cluster_Other Groups"><polygon fill="#24273A" points="35,132,45,122,278,122,278,209,268,219,35,219,35,132" style="stroke:#CAD3F5;stroke-width:1.0;"/><line style="stroke:#CAD3F5;stroke-width:1.0;" x1="268" x2="278" y1="132" y2="122"/><line style="stroke:#CAD3F5;stroke-width:1.0;" x1="35" x2="268" y1="132" y2="132"/><line style="stroke:#CAD3F5;stroke-width:1.0;" x1="268" x2="268" y1="132" y2="219"/><text fill="#CAD3F5" font-family="Helvetica" font-size="12" font-weight="bold" lengthAdjust="spacing" textLength="92" x="106.5" y="146.1387">Other Groups</text></g><g id="cluster_##12"><path d="M310.8076,151.1662 C314.4729,144.1902 319.9382,144.9988 323.5388,151.2285 C325.5552,145.9261 331.0334,144.3727 335.1096,148.772 C337.9844,143.718 341.9026,142.6345 346.1061,147.263 C349.5635,139.4048 354.4989,139.0704 360.1671,145.0102 C362.2635,139.6339 366.5625,139.4941 370.1189,143.4538 C374.0306,135.9024 380.2017,135.8753 384.0522,143.51 C389.2919,138.527 392.9543,139.6399 395.8319,145.9696 C400.6962,141.6588 406.0848,141.4463 408.0534,148.9621 C411.3703,145.2648 416.1436,146.0349 418.1457,150.5733 C422.9849,145.3406 427.5485,145.269 430.748,152.2633 C437.6654,155.4025 438.821,162.5747 433.1318,167.665 C441.3818,170.0531 442.6302,175.9696 436.1281,181.5428 C443.5484,187.7317 441.4852,193.3138 433.4791,196.8293 C439.4842,201.6671 439.1872,208.8109 431.5938,211.9537 C428.3982,218.0294 423.1014,218.2423 418.8941,213.0989 C415.4954,219.0835 411.5896,220.1271 406.8236,214.5231 C403.7292,221.0296 400.1508,221.2116 395.5397,215.9811 C392.9111,223.2624 387.3442,223.3182 382.6759,218.0762 C380.2295,224.3874 374.4875,225.0573 370.7687,219.3353 C366.2463,225.3405 361.9681,223.6523 358.9015,217.8697 C355.3336,222.7464 349.2542,222.2174 346.7054,216.6767 C342.6409,220.9582 337.7597,220.4124 335.3718,214.7632 C332.1329,220.3504 326.0581,220.2861 323.0068,214.5582 C318.54,219.8393 312.9878,220.071 310.1721,212.8617 C300.8067,209.5908 298.6612,204.6541 305.5224,196.7115 C297.8662,193.8173 296.8314,188.4628 302.3883,182.6282 C296.1858,177.0232 297.9507,170.3121 305.419,167.4339 C298.3137,160.4531 300.9236,152.5193 310.8076,151.1662 " fill="#24273A" style="stroke:#CAD3F5;stroke-width:1.0;"/></g><!--cluster MySql--><g id="cluster_MySql"><path d="M282,253 C282,243 370,243 370,243 C370,243 458,243 458,253 L458,520 C458,530 370,530 370,530 C370,530 282,530 282,520 L282,253 " fill="#24273A" style="stroke:#CAD3F5;stroke-width:1.0;"/><path d="M282,253 C282,263 370,263 370,263 C370,263 458,263 458,253 " fill="none" style="stroke:#CAD3F5;stroke-width:1.0;"/><text fill="#CAD3F5" font-family="Helvetica" font-size="12" font-weight="bold" lengthAdjust="spacing" textLength="42" x="349" y="276.1387">MySql</text></g><!--cluster This is my folder--><g id="cluster_This is my folder"><path d="M307.5,298 L422.5,298 A2.25,2.25 0 0 1 424,299.5 L431,317.9688 L432.5,317.9688 A1.5,1.5 0 0 1 434,319.4688 L434,388.5 A1.5,1.5 0 0 1 432.5,390 L307.5,390 A1.5,1.5 0 0 1 306,388.5 L306,299.5 A1.5,1.5 0 0 1 307.5,298 " fill="#24273A" style="stroke:#CAD3F5;stroke-width:1.5;"/><line style="stroke:#CAD3F5;stroke-width:1.5;" x1="306" x2="431" y1="317.9688" y2="317.9688"/><text fill="#CAD3F5" font-family="Helvetica" font-size="12" font-weight="bold" lengthAdjust="spacing" textLength="112" x="310" y="311.1387">This is my folder</text></g><!--cluster Foo--><g id="cluster_Foo"><rect fill="#24273A" height="92" rx="1.5" ry="1.5" style="stroke:#CAD3F5;stroke-width:1.0;" width="122" x="309" y="414"/><path d="M343,414 L343,420.9688 L333,430.9688 L309,430.9688 " fill="none" style="stroke:#CAD3F5;stroke-width:1.0;"/><text fill="#CAD3F5" font-family="Helvetica" font-size="12" font-weight="bold" lengthAdjust="spacing" textLength="24" x="312" y="426.1387">Foo</text></g><!--entity HTTP--><g id="elem_HTTP"><ellipse cx="206" cy="60" fill="#363A4F" rx="8" ry="8" style="stroke:#B7BDF8;stroke-width:0.5;"/><text fill="#CAD3F5" font-family="Helvetica" font-size="12" lengthAdjust="spacing" textLength="30" x="191" y="88.1387">HTTP</text></g><!--entity First Component--><g id="elem_First Component"><rect fill="#363A4F" height="43.9688" rx="1.5" ry="1.5" style="stroke:#B7BDF8;stroke-width:0.5;" width="140" x="22" y="38"/><rect fill="#363A4F" height="10" style="stroke:#B7BDF8;stroke-width:0.5;" width="15" x="142" y="43"/><rect fill="#363A4F" height="2" style="stroke:#B7BDF8;stroke-width:0.5;" width="4" x="140" y="45"/><rect fill="#363A4F" height="2" style="stroke:#B7BDF8;stroke-width:0.5;" width="4" x="140" y="49"/><text fill="#CAD3F5" font-family="Helvetica" font-size="12" lengthAdjust="spacing" textLength="100" x="37" y="69.1387">First Component</text></g><!--entity Another Component--><g id="elem_Another Component"><rect fill="#363A4F" height="43.9688" rx="1.5" ry="1.5" style="stroke:#B7BDF8;stroke-width:0.5;" width="162" x="250" y="38"/><rect fill="#363A4F" height="10" style="stroke:#B7BDF8;stroke-width:0.5;" width="15" x="392" y="43"/><rect fill="#363A4F" height="2" style="stroke:#B7BDF8;stroke-width:0.5;" width="4" x="390" y="45"/><rect fill="#363A4F" height="2" style="stroke:#B7BDF8;stroke-width:0.5;" width="4" x="390" y="49"/><text fill="#CAD3F5" font-family="Helvetica" font-size="12" lengthAdjust="spacing" textLength="122" x="265" y="69.1387">Another Component</text></g><!--entity FTP--><g id="elem_FTP"><ellipse cx="60" cy="181" fill="#363A4F" rx="8" ry="8" style="stroke:#B7BDF8;stroke-width:0.5;"/><text fill="#CAD3F5" font-family="Helvetica" font-size="12" lengthAdjust="spacing" textLength="21" x="49.5" y="209.1387">FTP</text></g><!--entity Second Component--><g id="elem_Second Component"><rect fill="#363A4F" height="43.9688" rx="1.5" ry="1.5" style="stroke:#B7BDF8;stroke-width:0.5;" width="159" x="103.5" y="159"/><rect fill="#363A4F" height="10" style="stroke:#B7BDF8;stroke-width:0.5;" width="15" x="242.5" y="164"/><rect fill="#363A4F" height="2" style="stroke:#B7BDF8;stroke-width:0.5;" width="4" x="240.5" y="166"/><rect fill="#363A4F" height="2" style="stroke:#B7BDF8;stroke-width:0.5;" width="4" x="240.5" y="170"/><text fill="#CAD3F5" font-family="Helvetica" font-size="12" lengthAdjust="spacing" textLength="119" x="118.5" y="190.1387">Second Component</text></g><!--entity Example 1--><g id="elem_Example 1"><rect fill="#363A4F" height="43.9688" rx="1.5" ry="1.5" style="stroke:#B7BDF8;stroke-width:0.5;" width="104" x="318" y="159"/><rect fill="#363A4F" height="10" style="stroke:#B7BDF8;stroke-width:0.5;" width="15" x="402" y="164"/><rect fill="#363A4F" height="2" style="stroke:#B7BDF8;stroke-width:0.5;" width="4" x="400" y="166"/><rect fill="#363A4F" height="2" style="stroke:#B7BDF8;stroke-width:0.5;" width="4" x="400" y="170"/><text fill="#CAD3F5" font-family="Helvetica" font-size="12" lengthAdjust="spacing" textLength="64" x="333" y="190.1387">Example 1</text></g><!--entity Folder 3--><g id="elem_Folder 3"><rect fill="#363A4F" height="43.9688" rx="1.5" ry="1.5" style="stroke:#B7BDF8;stroke-width:0.5;" width="89" x="325.5" y="330"/><rect fill="#363A4F" height="10" style="stroke:#B7BDF8;stroke-width:0.5;" width="15" x="394.5" y="335"/><rect fill="#363A4F" height="2" style="stroke:#B7BDF8;stroke-width:0.5;" width="4" x="392.5" y="337"/><rect fill="#363A4F" height="2" style="stroke:#B7BDF8;stroke-width:0.5;" width="4" x="392.5" y="341"/><text fill="#CAD3F5" font-family="Helvetica" font-size="12" lengthAdjust="spacing" textLength="49" x="340.5" y="361.1387">Folder 3</text></g><!--entity Frame 4--><g id="elem_Frame 4"><rect fill="#363A4F" height="43.9688" rx="1.5" ry="1.5" style="stroke:#B7BDF8;stroke-width:0.5;" width="90" x="325" y="446"/><rect fill="#363A4F" height="10" style="stroke:#B7BDF8;stroke-width:0.5;" width="15" x="395" y="451"/><rect fill="#363A4F" height="2" style="stroke:#B7BDF8;stroke-width:0.5;" width="4" x="393" y="453"/><rect fill="#363A4F" height="2" style="stroke:#B7BDF8;stroke-width:0.5;" width="4" x="393" y="457"/><text fill="#CAD3F5" font-family="Helvetica" font-size="12" lengthAdjust="spacing" textLength="50" x="340" y="477.1387">Frame 4</text></g><!--link HTTP to First Component--><g id="link_HTTP_First Component"><path d="M196.79,60 C185.32,60 173.84,60 162.36,60 " fill="none" id="HTTP-First Component" style="stroke:#F5BDE6;stroke-width:1.0;"/></g><!--link FTP to Second Component--><g id="link_FTP_Second Component"><path d="M69.13,181 C80.55,181 91.96,181 103.38,181 " fill="none" id="FTP-Second Component" style="stroke:#F5BDE6;stroke-width:1.0;"/></g><!--link First Component to FTP--><g id="link_First Component_FTP"><path d="M86.35,82 C79.18,108.69 68.6892,147.6961 63.7592,166.0161 " fill="none" id="First Component-to-FTP" style="stroke:#F5BDE6;stroke-width:1.0;"/><polygon fill="#F5BDE6" points="62.2,171.81,68.4013,164.1586,63.4993,166.9818,60.6762,162.0797,62.2,171.81" style="stroke:#F5BDE6;stroke-width:1.0;"/></g><!--link Another Component to Example 1--><g id="link_Another Component_Example 1"><path d="M337.88,82 C344.97,103.62 354.0834,131.4177 361.1834,153.1077 " fill="none" id="Another Component-to-Example 1" style="stroke:#F5BDE6;stroke-width:1.0;"/><polygon fill="#F5BDE6" points="363.05,158.81,364.0516,149.0122,361.4945,154.0581,356.4486,151.501,363.05,158.81" style="stroke:#F5BDE6;stroke-width:1.0;"/></g><!--link Example 1 to Folder 3--><g id="link_Example 1_Folder 3"><path d="M370,203.06 C370,235.54 370,291.47 370,323.94 " fill="none" id="Example 1-to-Folder 3" style="stroke:#F5BDE6;stroke-width:1.0;"/><polygon fill="#F5BDE6" points="370,329.94,374,320.94,370,324.94,366,320.94,370,329.94" style="stroke:#F5BDE6;stroke-width:1.0;"/></g><!--link Folder 3 to Frame 4--><g id="link_Folder 3_Frame 4"><path d="M370,374.18 C370,394.65 370,419.5 370,439.94 " fill="none" id="Folder 3-to-Frame 4" style="stroke:#F5BDE6;stroke-width:1.0;"/><polygon fill="#F5BDE6" points="370,445.94,374,436.94,370,440.94,366,436.94,370,445.94" style="stroke:#F5BDE6;stroke-width:1.0;"/></g><!--SRC=[RO_B2i8m44Nt-Oen-rP4ruA8rOqejBlY8ZPHYqaczW6AzD_Dez8YGXR3tCavCvDI5xBb0k9usjo44h5fbIJ4iEBEhW9eYah0jiBMK7WJW5sM7I62F2chke4rAeDQwEPaetobqJAgSRSZHAF5quDFFAWEf2I0Kb6WvZ-aNpf4qT9zSBn2Oiiz8TyycJ9ImCoBE6lOcTLMjd-b3nai5vJSYcbsAskmJxtwLeYTAqpCdRXpFofcJwO9uZ3YMuimOKr_BlKRZXSQrI4RF4FP9r_y1m00]--></g></svg>