<?xml version="1.0" encoding="us-ascii" standalone="no"?><svg xmlns="http://www.w3.org/2000/svg" xmlns:xlink="http://www.w3.org/1999/xlink" contentStyleType="text/css" height="516px" preserveAspectRatio="none" style="width:647px;height:516px;background:#24273A;" version="1.1" viewBox="0 0 647 516" width="647px" zoomAndPan="magnify"><defs/><g><rect fill="#24273A" height="516" style="stroke:none;stroke-width:1.0;" width="647" x="0" y="0"/><!--entity actor--><g id="elem_actor"><ellipse cx="51" cy="14" fill="#363A4F" rx="8" ry="8" style="stroke:#B7BDF8;stroke-width:0.5;"/><path d="M51,22 L51,49 M38,30 L64,30 M51,49 L38,64 M51,49 L64,64 " fill="none" style="stroke:#B7BDF8;stroke-width:0.5;"/><text fill="#CAD3F5" font-family="Helvetica" font-size="12" lengthAdjust="spacing" textLength="31" x="35.5" y="76.6387">actor</text></g><!--entity actor/--><g id="elem_actor/"><ellipse cx="119" cy="14" fill="#363A4F" rx="8" ry="8" style="stroke:#B7BDF8;stroke-width:0.5;"/><line style="stroke:#B7BDF8;stroke-width:0.5;" x1="117.0562" x2="126.7603" y1="21.7603" y2="12.0562"/><path d="M119,22 L119,49 M106,30 L132,30 M119,49 L106,64 M119,49 L132,64 " fill="none" style="stroke:#B7BDF8;stroke-width:0.5;"/><text fill="#CAD3F5" font-family="Helvetica" font-size="12" lengthAdjust="spacing" textLength="35" x="101.5" y="76.6387">actor/</text></g><!--entity agent--><g id="elem_agent"><rect fill="#363A4F" height="33.9688" rx="1.5" ry="1.5" style="stroke:#B7BDF8;stroke-width:0.5;" width="55" x="171.5" y="25.5"/><text fill="#CAD3F5" font-family="Helvetica" font-size="12" lengthAdjust="spacing" textLength="35" x="181.5" y="46.6387">agent</text></g><!--entity artifact--><g id="elem_artifact"><rect fill="#363A4F" height="36.9688" rx="1.5" ry="1.5" style="stroke:#B7BDF8;stroke-width:0.5;" width="73" x="261.5" y="24"/><polygon fill="#363A4F" points="317.5,29,317.5,43,329.5,43,329.5,35,323.5,29,317.5,29" style="stroke:#B7BDF8;stroke-width:0.5;"/><line style="stroke:#B7BDF8;stroke-width:0.5;" x1="323.5" x2="323.5" y1="29" y2="35"/><line style="stroke:#B7BDF8;stroke-width:0.5;" x1="329.5" x2="323.5" y1="35" y2="35"/><text fill="#CAD3F5" font-family="Helvetica" font-size="12" lengthAdjust="spacing" textLength="43" x="271.5" y="48.1387">artifact</text></g><!--entity boundary--><g id="elem_boundary"><path d="M378.5,23.5 L378.5,47.5 M378.5,35.5 L395.5,35.5 " fill="none" style="stroke:#B7BDF8;stroke-width:0.5;"/><ellipse cx="407.5" cy="35.5" fill="#363A4F" rx="12" ry="12" style="stroke:#B7BDF8;stroke-width:0.5;"/><text fill="#CAD3F5" font-family="Helvetica" font-size="12" lengthAdjust="spacing" textLength="58" x="370" y="62.6387">boundary</text></g><!--entity card--><g id="elem_card"><rect fill="#363A4F" height="19.9688" rx="1.5" ry="1.5" style="stroke:#B7BDF8;stroke-width:0.5;" width="47" x="463.5" y="32.5"/><text fill="#CAD3F5" font-family="Helvetica" font-size="12" lengthAdjust="spacing" textLength="27" x="473.5" y="46.6387">card</text></g><!--entity circle--><g id="elem_circle"><ellipse cx="51" cy="165.5" fill="#363A4F" rx="8" ry="8" style="stroke:#B7BDF8;stroke-width:0.5;"/><text fill="#CAD3F5" font-family="Helvetica" font-size="12" lengthAdjust="spacing" textLength="32" x="35" y="193.6387">circle</text></g><!--entity cloud--><g id="elem_cloud"><path d="M122.0285,152.8929 C123.8565,146.3776 128.6793,145.5829 133.3351,149.9567 C135.0531,142.8111 141.2885,141.6325 146.3755,146.2087 C152.1201,141.8306 155.8282,142.744 157.9984,149.832 C161.7327,144.3334 166.8901,146.0252 168.9174,151.5264 C175.8801,155.6076 175.8568,160.1501 170.543,165.6448 C176.6653,170.9639 177.73,175.9122 169.6673,180.3888 C167.1402,185.7552 161.2695,186.5727 157.441,181.9876 C153.8451,187.4092 150.0433,188.4883 145.3444,183.2379 C141.1814,187.6489 136.932,186.0542 135.3521,180.617 C130.9177,186.037 127.1796,185.0429 123.299,179.9803 C113.1915,181.4599 110.6488,176.6028 112.2186,167.6169 C107.3119,157.8021 111.8007,152.6243 122.0285,152.8929 " fill="#363A4F" style="stroke:#B7BDF8;stroke-width:0.5;"/><text fill="#CAD3F5" font-family="Helvetica" font-size="12" lengthAdjust="spacing" textLength="33" x="128.5" y="169.6387">cloud</text></g><!--entity collections--><g id="elem_collections"><rect fill="#363A4F" height="29.9688" rx="1.5" ry="1.5" style="stroke:#B7BDF8;stroke-width:0.5;" width="79" x="215.5" y="152.5"/><rect fill="#363A4F" height="29.9688" rx="1.5" ry="1.5" style="stroke:#B7BDF8;stroke-width:0.5;" width="79" x="211.5" y="148.5"/><text fill="#CAD3F5" font-family="Helvetica" font-size="12" lengthAdjust="spacing" textLength="63" x="219.5" y="167.6387">collections</text></g><!--entity component--><g id="elem_component"><rect fill="#363A4F" height="43.9688" rx="1.5" ry="1.5" style="stroke:#B7BDF8;stroke-width:0.5;" width="109" x="329.5" y="143.5"/><rect fill="#363A4F" height="10" style="stroke:#B7BDF8;stroke-width:0.5;" width="15" x="418.5" y="148.5"/><rect fill="#363A4F" height="2" style="stroke:#B7BDF8;stroke-width:0.5;" width="4" x="416.5" y="150.5"/><rect fill="#363A4F" height="2" style="stroke:#B7BDF8;stroke-width:0.5;" width="4" x="416.5" y="154.5"/><text fill="#CAD3F5" font-family="Helvetica" font-size="12" lengthAdjust="spacing" textLength="69" x="344.5" y="174.6387">component</text></g><!--entity control--><g id="elem_control"><ellipse cx="495" cy="158.5" fill="#363A4F" rx="12" ry="12" style="stroke:#B7BDF8;stroke-width:0.5;"/><polygon fill="#B7BDF8" points="491,146.5,497,141.5,495,146.5,497,151.5,491,146.5" style="stroke:#B7BDF8;stroke-width:1.0;"/><text fill="#CAD3F5" font-family="Helvetica" font-size="12" lengthAdjust="spacing" textLength="42" x="474" y="185.6387">control</text></g><!--entity database--><g id="elem_database"><path d="M551.5,154 C551.5,144 589,144 589,144 C589,144 626.5,144 626.5,154 L626.5,176.9688 C626.5,186.9688 589,186.9688 589,186.9688 C589,186.9688 551.5,186.9688 551.5,176.9688 L551.5,154 " fill="#363A4F" style="stroke:#B7BDF8;stroke-width:0.5;"/><path d="M551.5,154 C551.5,164 589,164 589,164 C589,164 626.5,164 626.5,154 " fill="none" style="stroke:#B7BDF8;stroke-width:0.5;"/><text fill="#CAD3F5" font-family="Helvetica" font-size="12" lengthAdjust="spacing" textLength="55" x="561.5" y="179.1387">database</text></g><!--entity entity--><g id="elem_entity"><ellipse cx="51" cy="270.5" fill="#363A4F" rx="12" ry="12" style="stroke:#B7BDF8;stroke-width:0.5;"/><line style="stroke:#B7BDF8;stroke-width:0.5;" x1="39" x2="63" y1="284.5" y2="284.5"/><text fill="#CAD3F5" font-family="Helvetica" font-size="12" lengthAdjust="spacing" textLength="35" x="33.5" y="297.6387">entity</text></g><!--entity file--><g id="elem_file"><path d="M103.5,262 L103.5,292.9688 A1.5,1.5 0 0 0 105,294.4688 L139,294.4688 A1.5,1.5 0 0 0 140.5,292.9688 L140.5,270.5 L130.5,260.5 L105,260.5 A1.5,1.5 0 0 0 103.5,262 " fill="#363A4F" style="stroke:#B7BDF8;stroke-width:0.5;"/><path d="M130.5,260.5 L130.5,269 A1.5,1.5 0 0 0 132,270.5 L140.5,270.5 " fill="#363A4F" style="stroke:#B7BDF8;stroke-width:0.5;"/><text fill="#CAD3F5" font-family="Helvetica" font-size="12" lengthAdjust="spacing" textLength="17" x="113.5" y="281.6387">file</text></g><!--entity folder--><g id="elem_folder"><path d="M177.5,251.5 L220.5,251.5 A2.25,2.25 0 0 1 222,253 L229,272.5 L244.5,272.5 A1.5,1.5 0 0 1 246,274 L246,301.9688 A1.5,1.5 0 0 1 244.5,303.4688 L177.5,303.4688 A1.5,1.5 0 0 1 176,301.9688 L176,253 A1.5,1.5 0 0 1 177.5,251.5 " fill="#363A4F" style="stroke:#B7BDF8;stroke-width:0.5;"/><line style="stroke:#B7BDF8;stroke-width:0.5;" x1="176" x2="229" y1="272.5" y2="272.5"/><text fill="#CAD3F5" font-family="Helvetica" font-size="12" lengthAdjust="spacing" textLength="34" x="186" y="290.6387">folder</text></g><!--entity frame--><g id="elem_frame"><rect fill="#363A4F" height="43.9688" rx="1.5" ry="1.5" style="stroke:#B7BDF8;stroke-width:0.5;" width="75" x="281.5" y="255.5"/><path d="M306.5,255.5 L306.5,260.5 L299.5,267.5 L281.5,267.5 " fill="none" style="stroke:#B7BDF8;stroke-width:0.5;"/><text fill="#CAD3F5" font-family="Helvetica" font-size="12" lengthAdjust="spacing" textLength="35" x="296.5" y="286.6387">frame</text></g><!--entity interface--><g id="elem_interface"><ellipse cx="426" cy="277.5" fill="#363A4F" rx="8" ry="8" style="stroke:#B7BDF8;stroke-width:0.5;"/><text fill="#CAD3F5" font-family="Helvetica" font-size="12" lengthAdjust="spacing" textLength="53" x="399.5" y="305.6387">interface</text></g><!--entity label--><g id="elem_label"><text fill="#CAD3F5" font-family="Helvetica" font-size="12" lengthAdjust="spacing" textLength="28" x="505" y="281.6387">label</text></g><!--entity node--><g id="elem_node"><polygon fill="#363A4F" points="16,378,26,368,86,368,86,401.9688,76,411.9688,16,411.9688,16,378" style="stroke:#B7BDF8;stroke-width:0.5;"/><line style="stroke:#B7BDF8;stroke-width:0.5;" x1="76" x2="86" y1="378" y2="368"/><line style="stroke:#B7BDF8;stroke-width:0.5;" x1="16" x2="76" y1="378" y2="378"/><line style="stroke:#B7BDF8;stroke-width:0.5;" x1="76" x2="76" y1="378" y2="411.9688"/><text fill="#CAD3F5" font-family="Helvetica" font-size="12" lengthAdjust="spacing" textLength="30" x="31" y="399.1387">node</text></g><!--entity package--><g id="elem_package"><path d="M123,371.5 L195,371.5 A2.25,2.25 0 0 1 196.5,373 L203.5,391.4688 L219,391.4688 A1.5,1.5 0 0 1 220.5,392.9688 L220.5,406.9688 A1.5,1.5 0 0 1 219,408.4688 L123,408.4688 A1.5,1.5 0 0 1 121.5,406.9688 L121.5,373 A1.5,1.5 0 0 1 123,371.5 " fill="#24273A" style="stroke:#B7BDF8;stroke-width:0.5;"/><line style="stroke:#B7BDF8;stroke-width:0.5;" x1="121.5" x2="203.5" y1="391.4688" y2="391.4688"/><text fill="#CAD3F5" font-family="Helvetica" font-size="12" font-weight="bold" lengthAdjust="spacing" textLength="57" x="131.5" y="385.6387">package</text></g><!--entity person--><g id="elem_person"><ellipse cx="286" cy="373.0593" fill="#363A4F" rx="9.5593" ry="9.5593" style="stroke:#B7BDF8;stroke-width:0.5;"/><rect fill="#363A4F" height="33.9688" rx="9.5593" ry="9.5593" style="stroke:#B7BDF8;stroke-width:0.5;" width="61" x="255.5" y="382.6185"/><text fill="#CAD3F5" font-family="Helvetica" font-size="12" lengthAdjust="spacing" textLength="41" x="265.5" y="403.7572">person</text></g><!--entity queue--><g id="elem_queue"><path d="M357,378 L405,378 C410,378 410,389.9844 410,389.9844 C410,389.9844 410,401.9688 405,401.9688 L357,401.9688 C352,401.9688 352,389.9844 352,389.9844 C352,389.9844 352,378 357,378 " fill="#363A4F" style="stroke:#B7BDF8;stroke-width:0.5;"/><path d="M405,378 C400,378 400,389.9844 400,389.9844 C400,401.9688 405,401.9688 405,401.9688 " fill="none" style="stroke:#B7BDF8;stroke-width:0.5;"/><text fill="#CAD3F5" font-family="Helvetica" font-size="12" lengthAdjust="spacing" textLength="38" x="357" y="394.1387">queue</text></g><!--entity rectangle--><g id="elem_rectangle"><rect fill="#363A4F" height="33.9688" rx="1.5" ry="1.5" style="stroke:#B7BDF8;stroke-width:0.5;" width="77" x="445.5" y="373"/><text fill="#CAD3F5" font-family="Helvetica" font-size="12" lengthAdjust="spacing" textLength="57" x="455.5" y="394.1387">rectangle</text></g><!--entity stack--><g id="elem_stack"><rect fill="#363A4F" height="33.9688" rx="1.5" ry="1.5" style="stroke:none;stroke-width:0.5;" width="52" x="573" y="373"/><path d="M558,373 L571.5,373 A1.5,1.5 0 0 1 573,374.5 L573,405.4688 A1.5,1.5 0 0 0 574.5,406.9688 L623.5,406.9688 A1.5,1.5 0 0 0 625,405.4688 L625,374.5 A1.5,1.5 0 0 1 626.5,373 L640,373 " fill="none" style="stroke:#B7BDF8;stroke-width:0.5;"/><text fill="#CAD3F5" font-family="Helvetica" font-size="12" lengthAdjust="spacing" textLength="32" x="583" y="394.1387">stack</text></g><!--entity storage--><g id="elem_storage"><rect fill="#363A4F" height="33.9688" rx="35" ry="35" style="stroke:#CAD3F5;stroke-width:0.5;" width="65" x="18.5" y="476.5"/><text fill="#CAD3F5" font-family="Helvetica" font-size="12" lengthAdjust="spacing" textLength="45" x="28.5" y="497.6387">storage</text></g><g id="elem_usecase"><ellipse cx="164.0398" cy="493.4038" fill="#363A4F" rx="45.5398" ry="12.9038" style="stroke:#B7BDF8;stroke-width:0.5;"/><text fill="#CAD3F5" font-family="Helvetica" font-size="12" lengthAdjust="spacing" textLength="48" x="137.8447" y="496.0692">usecase</text></g><g id="elem_usecase/"><ellipse cx="292.9895" cy="493.4286" fill="#363A4F" rx="48.4895" ry="12.9286" style="stroke:#B7BDF8;stroke-width:0.5;"/><text fill="#CAD3F5" font-family="Helvetica" font-size="12" lengthAdjust="spacing" textLength="52" x="263.9895" y="496.2479">usecase/</text></g><line style="stroke:#B7BDF8;stroke-width:0.5;" x1="337.6141" x2="323.452" y1="488.9217" y2="503.0838"/><!--SRC=[JP7BaeGW34NtzoioRcPdVrF4s4qr4YT2rVJVJn2rPdFFaV0my1LpI7KM6iT7USagurRN170eQdHazmSDdGFuARdGaM0hSV42NO99QvxPFdG90jjCBH2YXIJKWP2qUg4bWgOaeKJDE_rp7rytpUsystmi5zD49p5puObteKlWisBvK0UMw6UsmA9f5gCEBCQh5rhY-oM__DHC9n5p4VE6X6v3uaaI7OciVcaji75u-sNGIMnYks_KWPygLUX8c7V5-Ub_SnlsuileI7UrjjD9r5r2w-lazUrFSTc0Fm00]--></g></svg>