<?xml version="1.0" encoding="UTF-8" standalone="no"?><svg xmlns="http://www.w3.org/2000/svg" xmlns:xlink="http://www.w3.org/1999/xlink" contentScriptType="application/ecmascript" contentStyleType="text/css" height="595px" preserveAspectRatio="none" style="width:876px;height:595px;background:#22212C;" version="1.1" viewBox="0 0 876 595" width="876px" zoomAndPan="magnify"><defs/><g><!--MD5=[e209b37fc91f378abaa2ddf468318055]
entity actor--><ellipse cx="60" cy="14" fill="#454158" rx="8" ry="8" style="stroke:#8AFF80;stroke-width:1.5;"/><path d="M60,22 L60,49 M47,30 L73,30 M60,49 L47,64 M60,49 L73,64 " fill="none" style="stroke:#8AFF80;stroke-width:1.5;"/><text fill="#FF80BF" font-family="Fira Mono" font-size="20" lengthAdjust="spacing" textLength="60" x="30" y="85.2">actor</text><!--MD5=[aa4ec301efc5ec191ce15dba8ac8080e]
entity actor/--><ellipse cx="161" cy="14" fill="#454158" rx="8" ry="8" style="stroke:#8AFF80;stroke-width:1.5;"/><line style="stroke:#8AFF80;stroke-width:1.5;" x1="159.0562" x2="168.7603" y1="21.7603" y2="12.0562"/><path d="M161,22 L161,49 M148,30 L174,30 M161,49 L148,64 M161,49 L174,64 " fill="none" style="stroke:#8AFF80;stroke-width:1.5;"/><text fill="#FF80BF" font-family="Fira Mono" font-size="20" lengthAdjust="spacing" textLength="72" x="125" y="85.2">actor/</text><!--MD5=[3908db504f15eb564d5f0e12bd7273c1]
entity agent--><rect fill="#454158" height="44" rx="10" ry="10" style="stroke:#8AFF80;stroke-width:1.5;" width="80" x="232" y="25.5"/><text fill="#FF80BF" font-family="Fira Mono" font-size="20" lengthAdjust="spacing" textLength="60" x="242" y="54.2">agent</text><!--MD5=[ed13bbfe61d4f4be62c09eebe4db66d3]
entity artifact--><rect fill="#454158" height="47" rx="10" ry="10" style="stroke:#8AFF80;stroke-width:1.5;" width="126" x="347" y="24"/><polygon fill="#454158" points="456,29,456,43,468,43,468,35,462,29,456,29" style="stroke:#8AFF80;stroke-width:1.5;"/><line style="stroke:#8AFF80;stroke-width:1.5;" x1="462" x2="462" y1="29" y2="35"/><line style="stroke:#8AFF80;stroke-width:1.5;" x1="468" x2="462" y1="35" y2="35"/><text fill="#FF80BF" font-family="Fira Mono" font-size="20" lengthAdjust="spacing" textLength="96" x="357" y="55.7">artifact</text><!--MD5=[6cbf048fd2d5a055b0f2cbfd23391788]
entity boundary--><path d="M535.5,23.5 L535.5,47.5 M535.5,35.5 L552.5,35.5 " fill="none" style="stroke:#8AFF80;stroke-width:1.5;"/><ellipse cx="564.5" cy="35.5" fill="#454158" rx="12" ry="12" style="stroke:#8AFF80;stroke-width:1.5;"/><text fill="#FF80BF" font-family="Fira Mono" font-size="20" lengthAdjust="spacing" textLength="96" x="508" y="70.2">boundary</text><!--MD5=[0568ea600d1c2ace8679ac75c80dfc89]
entity card--><rect fill="#454158" height="30" rx="10" ry="10" style="stroke:#8AFF80;stroke-width:1.5;" width="68" x="639" y="32.5"/><text fill="#FF80BF" font-family="Fira Mono" font-size="20" lengthAdjust="spacing" textLength="48" x="649" y="54.2">card</text><!--MD5=[da456bc05ddb284180092693c9c3b3b1]
entity circle--><ellipse cx="60" cy="186.5" fill="#454158" rx="8" ry="8" style="stroke:#8AFF80;stroke-width:1.5;"/><text fill="#FF80BF" font-family="Fira Mono" font-size="20" lengthAdjust="spacing" textLength="72" x="24" y="222.2">circle</text><!--MD5=[3a4d72efb1b53e1acbdd1189cccbc328]
entity cloud--><path d="M148.733,168.5975 C150.4615,162.2862 156.1937,161.614 160.4802,165.7102 C163.449,159.1534 167.854,158.8859 172.825,163.4969 C175.6724,158.2894 180.9471,157.6954 184.7519,162.3378 C190.2684,156.7843 193.9868,158.3477 197.057,164.8373 C201.5575,158.591 207.5972,161.2331 209.7037,167.2968 C213.3279,161.7725 219.1273,162.3276 222.2361,167.8799 C233.1511,171.5213 236.0208,179.2034 227.9232,188.173 C234.0858,197.7314 231.2002,203.5127 221.1353,207.3175 C219.0889,212.6487 215.5238,214.7118 210.7494,210.1943 C208.2749,217.5405 203.255,216.955 198.4292,212.6888 C196.0237,219.4832 189.4926,221.8177 184.1287,216.059 C178.004,220.6111 174.5879,219.4794 172.9013,211.9385 C168.2713,217.556 162.44,215.7508 161.098,208.8406 C156.6319,215.0549 151.472,213.7493 148.8424,207.0921 C136.7031,205.8827 135.0889,195.5149 141.0686,187.2183 C134.821,178.0408 137.1685,170.4434 148.733,168.5975 " fill="#454158" style="stroke:#8AFF80;stroke-width:1.5;"/><text fill="#FF80BF" font-family="Fira Mono" font-size="20" lengthAdjust="spacing" textLength="60" x="154" y="193.2">cloud</text><!--MD5=[a5a7a1c563e7de0fee7f3171b646813b]
entity collections--><rect fill="#454158" height="40" rx="10" ry="10" style="stroke:#8AFF80;stroke-width:1.5;" width="148" x="268" y="168.5"/><rect fill="#454158" height="40" rx="10" ry="10" style="stroke:#8AFF80;stroke-width:1.5;" width="148" x="264" y="164.5"/><text fill="#FF80BF" font-family="Fira Mono" font-size="20" lengthAdjust="spacing" textLength="132" x="272" y="191.2">collections</text><!--MD5=[5f175ec018c225c86e8e77149e6345d4]
entity component--><rect fill="#454158" height="54" rx="10" ry="10" style="stroke:#8AFF80;stroke-width:1.5;" width="148" x="451" y="159.5"/><rect fill="#454158" height="10" style="stroke:#8AFF80;stroke-width:1.5;" width="15" x="579" y="164.5"/><rect fill="#454158" height="2" style="stroke:#8AFF80;stroke-width:1.5;" width="4" x="577" y="166.5"/><rect fill="#454158" height="2" style="stroke:#8AFF80;stroke-width:1.5;" width="4" x="577" y="170.5"/><text fill="#FF80BF" font-family="Fira Mono" font-size="20" lengthAdjust="spacing" textLength="108" x="466" y="198.2">component</text><!--MD5=[0b4603c22bc0d9214baf3db11effa15f]
entity control--><ellipse cx="676" cy="174.5" fill="#454158" rx="12" ry="12" style="stroke:#8AFF80;stroke-width:1.5;"/><polygon fill="#8AFF80" points="672,162.5,678,157.5,676,162.5,678,167.5,672,162.5" style="stroke:#8AFF80;stroke-width:1.0;"/><text fill="#F8F8F2" font-family="Fira Mono" font-size="20" lengthAdjust="spacing" textLength="84" x="634" y="209.2">control</text><!--MD5=[f50ff5e4cd64f259303fc83dba1819fc]
entity database--><path d="M753,170 C753,160 811,160 811,160 C811,160 869,160 869,170 L869,203 C869,213 811,213 811,213 C811,213 753,213 753,203 L753,170 " fill="#454158" style="stroke:#8AFF80;stroke-width:1.5;"/><path d="M753,170 C753,180 811,180 811,180 C811,180 869,180 869,170 " fill="none" style="stroke:#8AFF80;stroke-width:1.5;"/><text fill="#FF80BF" font-family="Fira Mono" font-size="20" lengthAdjust="spacing" textLength="96" x="763" y="202.7">database</text><!--MD5=[fbcd1a1664252f7f7ddf883fed3c1e0a]
entity entity--><ellipse cx="60" cy="306.5" fill="#454158" rx="12" ry="12" style="stroke:#8AFF80;stroke-width:1.5;"/><line style="stroke:#8AFF80;stroke-width:1.5;" x1="48" x2="72" y1="320.5" y2="320.5"/><text fill="#FF80BF" font-family="Fira Mono" font-size="20" lengthAdjust="spacing" textLength="72" x="24" y="341.2">entity</text><!--MD5=[7edcefaa406c65155265f04249a95b70]
entity file--><path d="M131,306.5 L131,330.5 A10,10 0 0 0 141,340.5 L189,340.5 A10,10 0 0 0 199,330.5 L199,306.5 L189,296.5 L141,296.5 A10,10 0 0 0 131,306.5 " fill="#454158" style="stroke:#8AFF80;stroke-width:1.5;"/><path d="M189,296.5 L189,296.5 A10,10 0 0 0 199,306.5 L199,306.5 " fill="#454158" style="stroke:#8AFF80;stroke-width:1.5;"/><text fill="#FF80BF" font-family="Fira Mono" font-size="20" lengthAdjust="spacing" textLength="48" x="141" y="325.2">file</text><!--MD5=[18b72bf5d1838316b3d85261d2b42cce]
entity folder--><path d="M244,287.5 L270,287.5 A15,15 0 0 1 280,297.5 L287,308.5 L326,308.5 A10,10 0 0 1 336,318.5 L336,339.5 A10,10 0 0 1 326,349.5 L244,349.5 A10,10 0 0 1 234,339.5 L234,297.5 A10,10 0 0 1 244,287.5 " fill="#454158" style="stroke:#8AFF80;stroke-width:1.5;"/><line style="stroke:#8AFF80;stroke-width:1.5;" x1="234" x2="287" y1="308.5" y2="308.5"/><text fill="#FF80BF" font-family="Fira Mono" font-size="20" lengthAdjust="spacing" textLength="72" x="244" y="334.2">folder</text><!--MD5=[7a641773cfca2682e51daa01eb969ffa]
entity frame--><rect fill="#454158" height="54" rx="10" ry="10" style="stroke:#8AFF80;stroke-width:1.5;" width="100" x="371" y="291.5"/><path d="M404.3333,291.5 L404.3333,296.5 L397.3333,303.5 L371,303.5 " fill="none" style="stroke:#8AFF80;stroke-width:1.5;"/><text fill="#FF80BF" font-family="Fira Mono" font-size="20" lengthAdjust="spacing" textLength="60" x="386" y="330.2">frame</text><!--MD5=[ea4128e1b5db6200a10193b8015cde63]
entity interface--><ellipse cx="568" cy="318.5" fill="#454158" rx="8" ry="8" style="stroke:#8AFF80;stroke-width:1.5;"/><text fill="#FF80BF" font-family="Fira Mono" font-size="20" lengthAdjust="spacing" textLength="108" x="514" y="354.2">interface</text><!--MD5=[a4a9a576f4d148d24afc849b85929192]
entity label--><text fill="#FF80BF" font-family="Fira Mono" font-size="20" lengthAdjust="spacing" textLength="60" x="675" y="325.2">label</text><!--MD5=[0b70d51bdd028022f5101c089cfdd98e]
entity node--><polygon fill="#454158" points="16,433,26,423,104,423,104,467,94,477,16,477,16,433" style="stroke:#8AFF80;stroke-width:1.5;"/><line style="stroke:#8AFF80;stroke-width:1.5;" x1="94" x2="104" y1="433" y2="423"/><line style="stroke:#8AFF80;stroke-width:1.5;" x1="16" x2="94" y1="433" y2="433"/><line style="stroke:#8AFF80;stroke-width:1.5;" x1="94" x2="94" y1="433" y2="477"/><text fill="#FF80BF" font-family="Fira Mono" font-size="20" lengthAdjust="spacing" textLength="48" x="31" y="461.7">node</text><!--MD5=[18b4c220f17afa2fa1b7909f1259f27e]
entity package--><path d="M149,426.5 L231,426.5 A15,15 0 0 1 241,436.5 L248,456.5 L255,456.5 A10,10 0 0 1 265,466.5 L265,463.5 A10,10 0 0 1 255,473.5 L149,473.5 A10,10 0 0 1 139,463.5 L139,436.5 A10,10 0 0 1 149,426.5 " fill="#22212C" style="stroke:#8AFF80;stroke-width:1.5;"/><line style="stroke:#8AFF80;stroke-width:1.5;" x1="139" x2="248" y1="456.5" y2="456.5"/><text fill="#FF80BF" font-family="Fira Mono" font-size="20" font-weight="bold" lengthAdjust="spacing" textLength="84" x="149" y="448.2">package</text><!--MD5=[785617a40335b4b3f4a4f9c464842b0b]
entity person--><ellipse cx="346" cy="427.861" fill="#454158" rx="13.361" ry="13.361" style="stroke:#8AFF80;stroke-width:1.5;"/><rect fill="#454158" height="44" rx="13.361" ry="13.361" style="stroke:#8AFF80;stroke-width:1.5;" width="92" x="300" y="441.222"/><text fill="#FF80BF" font-family="Fira Mono" font-size="20" lengthAdjust="spacing" textLength="72" x="310" y="469.922">person</text><!--MD5=[799e9543975076390d2a6ceafec8df6c]
entity queue--><path d="M432,433 L502,433 C507,433 507,450 507,450 C507,450 507,467 502,467 L432,467 C427,467 427,450 427,450 C427,450 427,433 432,433 " fill="#454158" style="stroke:#8AFF80;stroke-width:1.5;"/><path d="M502,433 C497,433 497,450 497,450 C497,467 502,467 502,467 " fill="none" style="stroke:#8AFF80;stroke-width:1.5;"/><text fill="#FF80BF" font-family="Fira Mono" font-size="20" lengthAdjust="spacing" textLength="60" x="432" y="456.7">queue</text><!--MD5=[7267aa9592867b0c03d3cbda6e92e719]
entity rectangle--><rect fill="#454158" height="44" rx="10" ry="10" style="stroke:#8AFF80;stroke-width:1.5;" width="128" x="542" y="428"/><text fill="#FF80BF" font-family="Fira Mono" font-size="20" lengthAdjust="spacing" textLength="108" x="552" y="456.7">rectangle</text><!--MD5=[f71e1929eceb486be132a5333dc4c68d]
entity stack--><rect fill="#454158" height="44" rx="10" ry="10" style="stroke:none;stroke-width:1.5;" width="80" x="720" y="428"/><path d="M705,428 L710,428 A10,10 0 0 1 720,438 L720,462 A10,10 0 0 0 730,472 L790,472 A10,10 0 0 0 800,462 L800,438 A10,10 0 0 1 810,428 L815,428 " fill="none" style="stroke:#8AFF80;stroke-width:1.5;"/><text fill="#FF80BF" font-family="Fira Mono" font-size="20" lengthAdjust="spacing" textLength="60" x="730" y="456.7">stack</text><!--MD5=[a5a6ae0ba01c8a4589ab26bd33e87aad]
entity storage--><rect fill="#454158" height="44" rx="35" ry="35" style="stroke:#F8F8F2;stroke-width:1.5;" width="104" x="8" y="545.5"/><text fill="#FF80BF" font-family="Fira Mono" font-size="20" lengthAdjust="spacing" textLength="84" x="18" y="574.2">storage</text><ellipse cx="222.0287" cy="567.3822" fill="#454158" rx="74.5287" ry="20.8822" style="stroke:#8AFF80;stroke-width:1.5;"/><text fill="#FF80BF" font-family="Fira Mono" font-size="20" lengthAdjust="spacing" textLength="84" x="177.0287" y="573.9822">usecase</text><ellipse cx="415.2063" cy="567.4347" fill="#454158" rx="83.7063" ry="20.9347" style="stroke:#8AFF80;stroke-width:1.5;"/><text fill="#FF80BF" font-family="Fira Mono" font-size="20" lengthAdjust="spacing" textLength="96" x="364.2063" y="574.0347">usecase/</text><line style="stroke:#8AFF80;stroke-width:1.5;" x1="492.2408" x2="469.7303" y1="560.1369" y2="582.6474"/><!--MD5=[406d1a31ec22f3ce40bce46614d87704]
link actor to actor/--><!--MD5=[15e23cdbfb4f1c2c53ce423ce5b4b654]
link actor/ to agent--><!--MD5=[64bb286cf7260b747f34aab12634a004]
link agent to artifact--><!--MD5=[00e5dfb8e68433482ac634f71ca4cc03]
link artifact to boundary--><!--MD5=[0a1997872cb7b5dc19307073964d47e6]
link boundary to card--><!--MD5=[451eb81b98c54e026694029caccf1bf4]
link actor to circle--><!--MD5=[a604b30785e17c085f23df1e9782fc11]
link circle to cloud--><!--MD5=[0b440645a936dd341138124ef929e183]
link cloud to collections--><!--MD5=[ee23a149a812653026017f1538146379]
link collections to component--><!--MD5=[4533821a253da4c88be5a6a338acd4e9]
link component to control--><!--MD5=[ee3f3e4871a542abb22ae612dc643c4d]
link control to database--><!--MD5=[10448a6b6600ee11e8301a6b6ae4b000]
link circle to entity--><!--MD5=[59daddd05257271c9cd70517cc25aec2]
link entity to file--><!--MD5=[34c4ea2ec1a1e6d0a3a34a5ce0777fef]
link file to folder--><!--MD5=[0c6dffb2cca7298a41ee3788a177ce7f]
link folder to frame--><!--MD5=[ee194c5b89fc636fd01c768ce6f86d88]
link frame to interface--><!--MD5=[a99392f2a3ab177ae6da4c0078bf6ec7]
link interface to label--><!--MD5=[53cee0c921884895d708ef8442a8a5f3]
link entity to node--><!--MD5=[25eee8668465b150de9b719034a4e11f]
link node to package--><!--MD5=[50fbd55387f8f225a0abf4d5ecbb8024]
link package to person--><!--MD5=[3f655ddeb1e80ab6fdce0a936507463f]
link person to queue--><!--MD5=[5e09dbeb541d8095ed90cbe6e1c3bfee]
link queue to rectangle--><!--MD5=[a5f2acbaed725906ad2f2d0afbd4fde1]
link rectangle to stack--><!--MD5=[6cb1607924ce6daf6188ff9e0367dfff]
link node to storage--><!--MD5=[3653f2d8d01dce9d85eaa536b92b1c92]
link storage to usecase--><!--MD5=[86f44cd0c01237c120b4848e047acdea]
link usecase to usecase/--><!--MD5=[724ace12c3bc4cc28b8f5398f624bb46]
@startuml

!include ../theme.puml

actor actor
actor/ "actor/"
agent agent
artifact artifact
boundary boundary
card card
circle circle
cloud cloud
collections collections
component component
control control
database database
entity entity
file file
folder folder
frame frame
'hexagon hexagon
interface interface
label label
node node
package package
person person
queue queue
rectangle rectangle
stack stack
storage storage
usecase usecase
usecase/ "usecase/"

@enduml

@startuml






skinparam backgroundColor #22212C
skinparam {
  DefaultFontColor #FF80BF
  DefaultFontName Fira Mono
  DefaultFontSize 20

  

  ActivityBackgroundColor        #454158
  ActivityBarColor               #F8F8F2
  ActivityBorderColor            #8AFF80
  ActivityDiamondBackgroundColor #454158
  ActivityDiamondBorderColor     #8AFF80
  ActivityEndColor               #FF9580
  ActivityStartColor             #8AFF80
  ActivityStopColor              #FF9580

  ActorBackgroundColor        #454158
  ActorBorderColor            #8AFF80
  ActorStereotypeFontColor    #F8F8F2

  AgentBackgroundColor       #454158
  AgentBorderColor           #8AFF80

  
  ArrowColor #8AFF80

  ArtifactBackgroundColor     #454158
  ArtifactBorderColor         #8AFF80

  BackgroundColor #22212C
  

  BoundaryBackgroundColor     #454158
  BoundaryBorderColor         #8AFF80
  BoundaryStereotypeFontColor #F8F8F2

  
  CaptionFontColor #F8F8F2
  CaptionFontSize 15

  CardBackgroundColor     #454158
  CardBorderColor         #8AFF80
  

  ClassAttributeFontColor #8AFF80

  ClassBackgroundColor   #22212C
  ClassBorderColor       #9580FF
  ClassBorderThickness	 2
	ClassArrowColor				 #FF80BF
  ClassFontColor 				 #8AFF80
  ClassFontSize 				 20
  
  ClassHeaderBackgroundColor #454158


  CloudBackgroundColor        #454158
  CloudBorderColor            #8AFF80
  
  CollectionsBackgroundColor #454158
  CollectionsBorderColor     #8AFF80

  
  ComponentBackgroundColor       #454158
  ComponentBorderColor           #8AFF80



  ControlBackgroundColor #454158
  ControlBorderColor     #8AFF80
  ControlFontColor       #F8F8F2
  ControlStereotypeFontColor #F8F8F2

  DatabaseBackgroundColor       #454158
  DatabaseBorderColor           #8AFF80

  

  


  EntityBackgroundColor #454158
  EntityBorderColor     #8AFF80
  

  FileBackgroundColor #454158
  FileBorderColor     #8AFF80


 
  FolderBackgroundColor #454158
  FolderBorderColor     #8AFF80
  

  FrameBackgroundColor       #454158
  FrameBorderColor           #8AFF80

  HexagonBackgroundColor #454158
  HexagonBorderColor     #8AFF80


  InterfaceBackgroundColor       #454158
  InterfaceBorderColor           #8AFF80

  LegendBackgroundColor   #454158
  LegendBorderColor       #F8F8F2

  
  NodeBackgroundColor       #454158
  NodeBorderColor           #8AFF80
  

  NoteBackgroundColor   #FFFF80
  NoteBorderColor       #22212C
  NoteFontColor         #22212C
  
  ObjectBackgroundColor       #454158
  ObjectBorderColor           #8AFF80
  
  PackageBackgroundColor       #22212C
  PackageBorderColor           #8AFF80

  
  ParticipantBackgroundColor #454158
  ParticipantBorderColor     #8AFF80
  
  PartitionBackgroundColor transparent
  PartitionBorderColor     #F8F8F2
  

  PersonBackgroundColor #454158
  PersonBorderColor     #8AFF80
  
  QueueBackgroundColor       #454158
  QueueBorderColor           #8AFF80
  
  
  RectangleBackgroundColor       #454158
  RectangleBorderColor           #8AFF80


  RoundCorner 20

  
  SequenceBoxBackgroundColor #454158
  SequenceBoxBorderColor     #8AFF80


  SequenceDividerBackgroundColor   #454158
  SequenceDividerBorderColor       #F8F8F2
  
  SequenceGroupBackgroundColor       #454158
  SequenceGroupBorderColor           #F8F8F2

  SequenceLifeLineBackgroundColor   #22212C
  SequenceLifeLineBorderColor       #8AFF80

  SequenceNewpageSeparatorColor  #F8F8F2
  
  
  SequenceReferenceBackgroundColor        transparent
  SequenceReferenceBorderColor            #F8F8F2
  SequenceReferenceHeaderBackgroundColor #454158

  
  Shadowing false

  StackBackgroundColor       #454158
  StackBorderColor           #8AFF80

  
  StateBackgroundColor    #454158
  StateBorderColor        #8AFF80
  StateEndColor           #FF9580
  StateStartColor         #8AFF80

  
  StorageBackgroundColor #454158
  StorageBorderColor     #F8F8F2
  
  
  SwimlaneBorderColor            #F8F8F2




  UsecaseBackgroundColor       #454158
  UsecaseBorderColor           #8AFF80
  
}


actor actor
actor/ "actor/"
agent agent
artifact artifact
boundary boundary
card card
circle circle
cloud cloud
collections collections
component component
control control
database database
entity entity
file file
folder folder
frame frame
interface interface
label label
node node
package package
person person
queue queue
rectangle rectangle
stack stack
storage storage
usecase usecase
usecase/ "usecase/"

@enduml

PlantUML version 1.2021.16(Wed Dec 08 12:25:22 EST 2021)
(GPL source distribution)
Java Runtime: OpenJDK Runtime Environment
JVM: OpenJDK 64-Bit Server VM
Default Encoding: UTF-8
Language: en
Country: CA
--></g></svg>