<?xml version="1.0" encoding="us-ascii" standalone="no"?><svg xmlns="http://www.w3.org/2000/svg" xmlns:xlink="http://www.w3.org/1999/xlink" contentStyleType="text/css" height="354px" preserveAspectRatio="none" style="width:565px;height:354px;background:#24273A;" version="1.1" viewBox="0 0 565 354" width="565px" zoomAndPan="magnify"><defs/><g><rect fill="#24273A" height="354" style="stroke:none;stroke-width:1.0;" width="565" x="0" y="0"/><g id="elem_user1"><rect fill="#363A4F" height="53.9063" rx="1.5" ry="1.5" style="stroke:#B7BDF8;stroke-width:0.5;" width="124" x="18.5" y="24.5"/><text fill="#CAD3F5" font-family="Helvetica" font-size="12" lengthAdjust="spacing" textLength="34" x="63.5" y="37.6387">user1</text><line style="stroke:#B7BDF8;stroke-width:0.5;" x1="19.5" x2="141.5" y1="42.4688" y2="42.4688"/><text fill="#CAD3F5" font-family="Helvetica" font-size="12" lengthAdjust="spacing" textLength="112" x="24.5" y="57.6074">name = "Dummy"</text><text fill="#CAD3F5" font-family="Helvetica" font-size="12" lengthAdjust="spacing" textLength="53" x="24.5" y="71.5762">id = 123</text></g><g id="elem_user2"><rect fill="#363A4F" height="53.9063" rx="1.5" ry="1.5" style="stroke:#B7BDF8;stroke-width:0.5;" width="124" x="177.5" y="24.5"/><text fill="#CAD3F5" font-family="Helvetica" font-size="12" lengthAdjust="spacing" textLength="34" x="222.5" y="37.6387">user2</text><line style="stroke:#B7BDF8;stroke-width:0.5;" x1="178.5" x2="300.5" y1="42.4688" y2="42.4688"/><text fill="#CAD3F5" font-family="Helvetica" font-size="12" lengthAdjust="spacing" textLength="112" x="183.5" y="57.6074">name = "Dummy"</text><text fill="#CAD3F5" font-family="Helvetica" font-size="12" lengthAdjust="spacing" textLength="53" x="183.5" y="71.5762">id = 123</text></g><g id="elem_o1"><rect fill="#363A4F" height="33.9688" rx="1.5" ry="1.5" style="stroke:#B7BDF8;stroke-width:0.5;" width="29" x="337" y="34.5"/><text fill="#CAD3F5" font-family="Helvetica" font-size="12" lengthAdjust="spacing" textLength="15" x="344" y="47.6387">o1</text><line style="stroke:#B7BDF8;stroke-width:0.5;" x1="338" x2="365" y1="52.4688" y2="52.4688"/></g><g id="elem_o2"><rect fill="#363A4F" height="33.9688" rx="1.5" ry="1.5" style="stroke:#B7BDF8;stroke-width:0.5;" width="29" x="401" y="34.5"/><text fill="#CAD3F5" font-family="Helvetica" font-size="12" lengthAdjust="spacing" textLength="15" x="408" y="47.6387">o2</text><line style="stroke:#B7BDF8;stroke-width:0.5;" x1="402" x2="429" y1="52.4688" y2="52.4688"/></g><g id="elem_dia"><polygon fill="#363A4F" points="383.5,202.5,395.5,214.5,383.5,226.5,371.5,214.5,383.5,202.5" style="stroke:#B7BDF8;stroke-width:0.5;"/></g><g id="elem_o3"><rect fill="#363A4F" height="33.9688" rx="1.5" ry="1.5" style="stroke:#B7BDF8;stroke-width:0.5;" width="29" x="369" y="315"/><text fill="#CAD3F5" font-family="Helvetica" font-size="12" lengthAdjust="spacing" textLength="15" x="376" y="328.1387">o3</text><line style="stroke:#B7BDF8;stroke-width:0.5;" x1="370" x2="397" y1="332.9688" y2="332.9688"/></g><g id="elem_London"><rect fill="#363A4F" height="33.9688" rx="1.5" ry="1.5" style="stroke:#B7BDF8;stroke-width:0.5;" width="59" x="197" y="197.5"/><text fill="#CAD3F5" font-family="Helvetica" font-size="12" lengthAdjust="spacing" textLength="45" x="204" y="210.6387">London</text><line style="stroke:#B7BDF8;stroke-width:0.5;" x1="198" x2="255" y1="215.4688" y2="215.4688"/></g><g id="elem_CapitalCity"><rect fill="#F1F1F1" height="71.875" rx="1.5" ry="1.5" style="stroke:#181818;stroke-width:0.5;" width="147" x="7" y="179"/><text fill="#CAD3F5" font-family="Helvetica" font-size="12" lengthAdjust="spacing" textLength="64" x="48.5" y="192.1387">CapitalCity</text><line style="stroke:#181818;stroke-width:1.0;" x1="7" x2="154" y1="196.9688" y2="196.9688"/><text fill="#CAD3F5" font-family="Helvetica" font-size="12" lengthAdjust="spacing" textLength="17" x="72" y="210.1074">UK</text><line style="stroke:#181818;stroke-width:1.0;" x1="7" x2="154" y1="214.9375" y2="214.9375"/><text fill="#CAD3F5" font-family="Helvetica" font-size="12" lengthAdjust="spacing" textLength="25" x="27" y="228.0762">USA</text><text fill="#CAD3F5" font-family="Helvetica" font-size="12" lengthAdjust="spacing" textLength="72" x="77" y="228.0762">Washington</text><line style="stroke:#181818;stroke-width:1.0;" x1="72" x2="72" y1="214.9375" y2="232.9063"/><line style="stroke:#181818;stroke-width:1.0;" x1="7" x2="154" y1="232.9063" y2="232.9063"/><text fill="#CAD3F5" font-family="Helvetica" font-size="12" lengthAdjust="spacing" textLength="55" x="12" y="246.0449">Germany</text><text fill="#CAD3F5" font-family="Helvetica" font-size="12" lengthAdjust="spacing" textLength="34" x="77" y="246.0449">Berlin</text><line style="stroke:#181818;stroke-width:1.0;" x1="72" x2="72" y1="232.9063" y2="250.875"/></g><rect fill="#F1F1F1" height="89.8438" rx="1.5" ry="1.5" style="stroke:#181818;stroke-width:0.5;" width="85" x="473" y="7"/><text fill="#CAD3F5" font-family="Helvetica" font-size="12" lengthAdjust="spacing" textLength="24" x="503.5" y="20.1387">json</text><line style="stroke:#181818;stroke-width:1.0;" x1="512" x2="512" y1="24.9688" y2="96.8438"/><line style="stroke:#181818;stroke-width:1.0;" x1="473" x2="558" y1="24.9688" y2="24.9688"/><text fill="#CAD3F5" font-family="Helvetica" font-size="12" lengthAdjust="spacing" textLength="25" x="478" y="38.1074">fruit</text><text fill="#CAD3F5" font-family="Helvetica" font-size="12" lengthAdjust="spacing" textLength="34" x="517" y="38.1074">Apple</text><line style="stroke:#181818;stroke-width:1.0;" x1="473" x2="558" y1="42.9375" y2="42.9375"/><text fill="#CAD3F5" font-family="Helvetica" font-size="12" lengthAdjust="spacing" textLength="22" x="478" y="56.0762">size</text><text fill="#CAD3F5" font-family="Helvetica" font-size="12" lengthAdjust="spacing" textLength="34" x="517" y="56.0762">Large</text><line style="stroke:#181818;stroke-width:1.0;" x1="473" x2="558" y1="60.9063" y2="60.9063"/><text fill="#CAD3F5" font-family="Helvetica" font-size="12" lengthAdjust="spacing" textLength="29" x="478" y="74.0449">color</text><text fill="#CAD3F5" font-family="Helvetica" font-size="12" lengthAdjust="spacing" textLength="23" x="517" y="74.0449">Red</text><line style="stroke:#181818;stroke-width:1.0;" x1="512" x2="558" y1="78.875" y2="78.875"/><text fill="#CAD3F5" font-family="Helvetica" font-size="12" lengthAdjust="spacing" textLength="36" x="517" y="92.0137">Green</text><!--link o1 to dia--><g id="link_o1_dia"><path codeLine="18" d="M354.69,68.53 C361.29,101.77 375.1514,171.4749 380.4414,198.1149 " fill="none" id="o1-to-dia" style="stroke:#F5BDE6;stroke-width:1.0;"/><polygon fill="#F5BDE6" points="381.61,204,383.7805,194.3933,380.6361,199.0958,375.9337,195.9514,381.61,204" style="stroke:#F5BDE6;stroke-width:1.0;"/></g><!--link o2 to dia--><g id="link_o2_dia"><path codeLine="19" d="M412.31,68.53 C405.71,101.77 391.8486,171.4749 386.5586,198.1149 " fill="none" id="o2-to-dia" style="stroke:#F5BDE6;stroke-width:1.0;"/><polygon fill="#F5BDE6" points="385.39,204,391.0663,195.9514,386.3639,199.0958,383.2195,194.3933,385.39,204" style="stroke:#F5BDE6;stroke-width:1.0;"/><text fill="#CAD3F5" font-family="Helvetica" font-size="12" lengthAdjust="spacing" textLength="8" x="401.9283" y="87.6286">1</text><text fill="#CAD3F5" font-family="Helvetica" font-size="12" lengthAdjust="spacing" textLength="8" x="376.0449" y="191.61">1</text></g><!--link dia to o3--><g id="link_dia_o3"><path codeLine="20" d="M383.5,226.57 C383.5,247.01 383.5,284.75 383.5,308.63 " fill="none" id="dia-to-o3" style="stroke:#F5BDE6;stroke-width:1.0;"/><polygon fill="#F5BDE6" points="383.5,314.63,387.5,305.63,383.5,309.63,379.5,305.63,383.5,314.63" style="stroke:#F5BDE6;stroke-width:1.0;"/></g><!--link CapitalCity to London--><g id="link_CapitalCity_London"><path d="M155.5,204.5 C169.13,211.87 178.2743,216.4944 190.8543,219.5944 " fill="none" id="CapitalCity-to-London" style="stroke:#F5BDE6;stroke-width:1.0;"/><polygon fill="#F5BDE6" points="196.68,221.03,188.8985,214.9928,191.8252,219.8337,186.9844,222.7604,196.68,221.03" style="stroke:#F5BDE6;stroke-width:1.0;"/></g><!--link user1 to CapitalCity--><g id="link_user1_CapitalCity"><path codeLine="30" d="M80.5,78.73 C80.5,104.83 80.5,139.2 80.5,168.95 " fill="none" id="user1-to-CapitalCity" style="stroke:#F5BDE6;stroke-width:1.0;"/><polygon fill="#F5BDE6" points="80.5,174.95,84.5,165.95,80.5,169.95,76.5,165.95,80.5,174.95" style="stroke:#F5BDE6;stroke-width:1.0;"/><polygon fill="#CAD3F5" points="84.5,141.9844,86.8511,134.7483,82.1489,134.7483,84.5,141.9844" style="stroke:#CAD3F5;stroke-width:1.0;"/><text fill="#CAD3F5" font-family="Helvetica" font-size="12" lengthAdjust="spacing" textLength="30" x="93.5" y="142.1387">visits</text></g><!--SRC=[NOzFJyCm3CNl-HGF7z5Mr7Ahj4fZI3km4sZYW3Y4rMoPygTAKgI2-Eua7NJ08NRyq_EpVQ7iJlSjeoYkue4D5rrlj13kvSYxY3wmByKOKSDAmrY0RdjZ1fgmQXCig-i_NHK-1FvtuApzdDIkd7wLQ9KqphP8UQBPk0Jcy-Q4Au1A6kkSCqjlhDrvYKsoSLO88pkiPAUYr2iLXxpMzWwNIVojmFPXYKM3HnaEokvZHclsHjeXunlsMjcyx-dUFEQtNuqt5LGCQ8Gu1cSnXdmywDNtAb9DowxJJBEH1VNEL8Csqkz_sCvfvnDyedjkQGPQUsPBpsdg5m00]--></g></svg>