<?xml version="1.0" encoding="UTF-8" standalone="no"?><svg xmlns="http://www.w3.org/2000/svg" xmlns:xlink="http://www.w3.org/1999/xlink" contentStyleType="text/css" height="463px" preserveAspectRatio="none" style="width:900px;height:463px;background:#22212C;" version="1.1" viewBox="0 0 900 463" width="900px" zoomAndPan="magnify"><defs/><g><line style="stroke:#8AFF80;stroke-width:0.5;stroke-dasharray:5.0,5.0;" x1="78" x2="78" y1="89" y2="374.9998"/><line style="stroke:#8AFF80;stroke-width:0.5;stroke-dasharray:5.0,5.0;" x1="198" x2="198" y1="89" y2="374.9998"/><line style="stroke:#8AFF80;stroke-width:0.5;stroke-dasharray:5.0,5.0;" x1="292" x2="292" y1="89" y2="374.9998"/><line style="stroke:#8AFF80;stroke-width:0.5;stroke-dasharray:5.0,5.0;" x1="398" x2="398" y1="89" y2="374.9998"/><line style="stroke:#8AFF80;stroke-width:0.5;stroke-dasharray:5.0,5.0;" x1="492" x2="492" y1="89" y2="374.9998"/><line style="stroke:#8AFF80;stroke-width:0.5;stroke-dasharray:5.0,5.0;" x1="592" x2="592" y1="89" y2="374.9998"/><line style="stroke:#8AFF80;stroke-width:0.5;stroke-dasharray:5.0,5.0;" x1="728" x2="728" y1="89" y2="374.9998"/><line style="stroke:#8AFF80;stroke-width:0.5;stroke-dasharray:5.0,5.0;" x1="853" x2="853" y1="89" y2="374.9998"/><rect fill="#454158" height="38" rx="10" ry="10" style="stroke:#8AFF80;stroke-width:0.5;" width="146" x="5" y="50"/><text fill="#FF80BF" font-family="Fira Mono" font-size="20" lengthAdjust="spacing" textLength="132" x="12" y="75.7">Participant</text><rect fill="#454158" height="38" rx="10" ry="10" style="stroke:#8AFF80;stroke-width:0.5;" width="146" x="5" y="373.9998"/><text fill="#FF80BF" font-family="Fira Mono" font-size="20" lengthAdjust="spacing" textLength="132" x="12" y="399.6998">Participant</text><text fill="#FF80BF" font-family="Fira Mono" font-size="20" lengthAdjust="spacing" textLength="60" x="165" y="83.7">Actor</text><ellipse cx="198" cy="13.5" fill="#454158" rx="8" ry="8" style="stroke:#8AFF80;stroke-width:0.5;"/><path d="M198,21.5 L198,48.5 M185,29.5 L211,29.5 M198,48.5 L185,63.5 M198,48.5 L211,63.5 " fill="none" style="stroke:#8AFF80;stroke-width:0.5;"/><text fill="#FF80BF" font-family="Fira Mono" font-size="20" lengthAdjust="spacing" textLength="60" x="165" y="392.6998">Actor</text><ellipse cx="198" cy="406.4998" fill="#454158" rx="8" ry="8" style="stroke:#8AFF80;stroke-width:0.5;"/><path d="M198,414.4998 L198,441.4998 M185,422.4998 L211,422.4998 M198,441.4998 L185,456.4998 M198,441.4998 L211,456.4998 " fill="none" style="stroke:#8AFF80;stroke-width:0.5;"/><text fill="#FF80BF" font-family="Fira Mono" font-size="20" lengthAdjust="spacing" textLength="96" x="241" y="83.7">Boundary</text><path d="M271.5,37 L271.5,61 M271.5,49 L288.5,49 " fill="none" style="stroke:#8AFF80;stroke-width:0.5;"/><ellipse cx="300.5" cy="49" fill="#454158" rx="12" ry="12" style="stroke:#8AFF80;stroke-width:0.5;"/><text fill="#FF80BF" font-family="Fira Mono" font-size="20" lengthAdjust="spacing" textLength="96" x="241" y="392.6998">Boundary</text><path d="M271.5,401.9998 L271.5,425.9998 M271.5,413.9998 L288.5,413.9998 " fill="none" style="stroke:#8AFF80;stroke-width:0.5;"/><ellipse cx="300.5" cy="413.9998" fill="#454158" rx="12" ry="12" style="stroke:#8AFF80;stroke-width:0.5;"/><text fill="#F8F8F2" font-family="Fira Mono" font-size="20" lengthAdjust="spacing" textLength="84" x="353" y="83.7">Control</text><ellipse cx="398" cy="49" fill="#454158" rx="12" ry="12" style="stroke:#8AFF80;stroke-width:0.5;"/><polygon fill="#8AFF80" points="394,37,400,32,398,37,400,42,394,37" style="stroke:#8AFF80;stroke-width:1.0;"/><text fill="#F8F8F2" font-family="Fira Mono" font-size="20" lengthAdjust="spacing" textLength="84" x="353" y="392.6998">Control</text><ellipse cx="398" cy="413.9998" fill="#454158" rx="12" ry="12" style="stroke:#8AFF80;stroke-width:0.5;"/><polygon fill="#8AFF80" points="394,401.9998,400,396.9998,398,401.9998,400,406.9998,394,401.9998" style="stroke:#8AFF80;stroke-width:1.0;"/><text fill="#FF80BF" font-family="Fira Mono" font-size="20" lengthAdjust="spacing" textLength="72" x="453" y="83.7">Entity</text><ellipse cx="492" cy="49" fill="#454158" rx="12" ry="12" style="stroke:#8AFF80;stroke-width:0.5;"/><line style="stroke:#8AFF80;stroke-width:0.5;" x1="480" x2="504" y1="63" y2="63"/><text fill="#FF80BF" font-family="Fira Mono" font-size="20" lengthAdjust="spacing" textLength="72" x="453" y="392.6998">Entity</text><ellipse cx="492" cy="413.9998" fill="#454158" rx="12" ry="12" style="stroke:#8AFF80;stroke-width:0.5;"/><line style="stroke:#8AFF80;stroke-width:0.5;" x1="480" x2="504" y1="427.9998" y2="427.9998"/><text fill="#FF80BF" font-family="Fira Mono" font-size="20" lengthAdjust="spacing" textLength="96" x="541" y="83.7">Database</text><path d="M574,29 C574,19 592,19 592,19 C592,19 610,19 610,29 L610,55 C610,65 592,65 592,65 C592,65 574,65 574,55 L574,29 " fill="#454158" style="stroke:#8AFF80;stroke-width:1.5;"/><path d="M574,29 C574,39 592,39 592,39 C592,39 610,39 610,29 " fill="none" style="stroke:#8AFF80;stroke-width:1.5;"/><text fill="#FF80BF" font-family="Fira Mono" font-size="20" lengthAdjust="spacing" textLength="96" x="541" y="392.6998">Database</text><path d="M574,407.9998 C574,397.9998 592,397.9998 592,397.9998 C592,397.9998 610,397.9998 610,407.9998 L610,433.9998 C610,443.9998 592,443.9998 592,443.9998 C592,443.9998 574,443.9998 574,433.9998 L574,407.9998 " fill="#454158" style="stroke:#8AFF80;stroke-width:1.5;"/><path d="M574,407.9998 C574,417.9998 592,417.9998 592,417.9998 C592,417.9998 610,417.9998 610,407.9998 " fill="none" style="stroke:#8AFF80;stroke-width:1.5;"/><rect fill="#454158" height="38" rx="10" ry="10" style="stroke:#8AFF80;stroke-width:0.5;" width="146" x="657" y="46"/><rect fill="#454158" height="38" rx="10" ry="10" style="stroke:#8AFF80;stroke-width:0.5;" width="146" x="653" y="50"/><text fill="#FF80BF" font-family="Fira Mono" font-size="20" lengthAdjust="spacing" textLength="132" x="660" y="75.7">Collections</text><rect fill="#454158" height="38" rx="10" ry="10" style="stroke:#8AFF80;stroke-width:0.5;" width="146" x="657" y="373.9998"/><rect fill="#454158" height="38" rx="10" ry="10" style="stroke:#8AFF80;stroke-width:0.5;" width="146" x="653" y="377.9998"/><text fill="#FF80BF" font-family="Fira Mono" font-size="20" lengthAdjust="spacing" textLength="132" x="660" y="403.6998">Collections</text><path d="M818,55 L888,55 C893,55 893,72 893,72 C893,72 893,89 888,89 L818,89 C813,89 813,72 813,72 C813,72 813,55 818,55 " fill="#454158" style="stroke:#8AFF80;stroke-width:0.5;"/><path d="M888,55 C883,55 883,72 883,72 C883,89 888,89 888,89 " fill="none" style="stroke:#8AFF80;stroke-width:0.5;"/><text fill="#FF80BF" font-family="Fira Mono" font-size="20" lengthAdjust="spacing" textLength="60" x="818" y="78.7">Queue</text><path d="M818,373.9998 L888,373.9998 C893,373.9998 893,390.9998 893,390.9998 C893,390.9998 893,407.9998 888,407.9998 L818,407.9998 C813,407.9998 813,390.9998 813,390.9998 C813,390.9998 813,373.9998 818,373.9998 " fill="#454158" style="stroke:#8AFF80;stroke-width:0.5;"/><path d="M888,373.9998 C883,373.9998 883,390.9998 883,390.9998 C883,407.9998 888,407.9998 888,407.9998 " fill="none" style="stroke:#8AFF80;stroke-width:0.5;"/><text fill="#FF80BF" font-family="Fira Mono" font-size="20" lengthAdjust="spacing" textLength="60" x="818" y="397.6998">Queue</text><polygon fill="#FF80BF" points="186,125,196,129,186,133,190,129" style="stroke:#FF80BF;stroke-width:1.0;"/><line style="stroke:#FF80BF;stroke-width:1.0;" x1="78" x2="192" y1="129" y2="129"/><text fill="#FF80BF" font-family="Fira Mono" font-size="20" lengthAdjust="spacing" textLength="96" x="85" y="121.7">To actor</text><polygon fill="#FF80BF" points="280,162.9999,290,166.9999,280,170.9999,284,166.9999" style="stroke:#FF80BF;stroke-width:1.0;"/><line style="stroke:#FF80BF;stroke-width:1.0;" x1="78" x2="286" y1="166.9999" y2="166.9999"/><text fill="#FF80BF" font-family="Fira Mono" font-size="20" lengthAdjust="spacing" textLength="132" x="85" y="159.6999">To boundary</text><polygon fill="#FF80BF" points="386,200.9999,396,204.9999,386,208.9999,390,204.9999" style="stroke:#FF80BF;stroke-width:1.0;"/><line style="stroke:#FF80BF;stroke-width:1.0;" x1="78" x2="392" y1="204.9999" y2="204.9999"/><text fill="#FF80BF" font-family="Fira Mono" font-size="20" lengthAdjust="spacing" textLength="120" x="85" y="197.6999">To control</text><polygon fill="#FF80BF" points="480,238.9999,490,242.9999,480,246.9999,484,242.9999" style="stroke:#FF80BF;stroke-width:1.0;"/><line style="stroke:#FF80BF;stroke-width:1.0;" x1="78" x2="486" y1="242.9999" y2="242.9999"/><text fill="#FF80BF" font-family="Fira Mono" font-size="20" lengthAdjust="spacing" textLength="108" x="85" y="235.6999">To entity</text><polygon fill="#FF80BF" points="580,276.9999,590,280.9999,580,284.9999,584,280.9999" style="stroke:#FF80BF;stroke-width:1.0;"/><line style="stroke:#FF80BF;stroke-width:1.0;" x1="78" x2="586" y1="280.9999" y2="280.9999"/><text fill="#FF80BF" font-family="Fira Mono" font-size="20" lengthAdjust="spacing" textLength="132" x="85" y="273.6999">To database</text><polygon fill="#FF80BF" points="716,314.9998,726,318.9998,716,322.9998,720,318.9998" style="stroke:#FF80BF;stroke-width:1.0;"/><line style="stroke:#FF80BF;stroke-width:1.0;" x1="78" x2="722" y1="318.9998" y2="318.9998"/><text fill="#FF80BF" font-family="Fira Mono" font-size="20" lengthAdjust="spacing" textLength="168" x="85" y="311.6998">To collections</text><polygon fill="#FF80BF" points="841,352.9998,851,356.9998,841,360.9998,845,356.9998" style="stroke:#FF80BF;stroke-width:1.0;"/><line style="stroke:#FF80BF;stroke-width:1.0;" x1="78" x2="847" y1="356.9998" y2="356.9998"/><text fill="#FF80BF" font-family="Fira Mono" font-size="20" lengthAdjust="spacing" textLength="96" x="85" y="349.6998">To queue</text><!--MD5=[fadf620ee831db7bc0b37d65e78b683c]
@startuml

!include ../theme.puml

participant Participant as Foo
actor       Actor       as Foo1
boundary    Boundary    as Foo2
control     Control     as Foo3
entity      Entity      as Foo4
database    Database    as Foo5
collections Collections as Foo6
queue       Queue       as Foo7
Foo -> Foo1 : To actor
Foo -> Foo2 : To boundary
Foo -> Foo3 : To control
Foo -> Foo4 : To entity
Foo -> Foo5 : To database
Foo -> Foo6 : To collections
Foo -> Foo7: To queue

@enduml

@startuml






skinparam backgroundColor #22212C

skinparam {
  DefaultFontColor #FF80BF
  DefaultFontName Fira Mono
  DefaultFontSize 20

  

  ActivityBackgroundColor        #454158
  ActivityBarColor               #F8F8F2
  ActivityBorderColor            #8AFF80
  ActivityDiamondBackgroundColor #454158
  ActivityDiamondBorderColor     #8AFF80
  ActivityEndColor               #FF9580
  ActivityStartColor             #8AFF80
  ActivityStopColor              #FF9580

  ActorBackgroundColor        #454158
  ActorBorderColor            #8AFF80
  ActorStereotypeFontColor    #F8F8F2

  AgentBackgroundColor       #454158
  AgentBorderColor           #8AFF80

  
  ArrowColor #8AFF80

  ArtifactBackgroundColor     #454158
  ArtifactBorderColor         #8AFF80

  BackgroundColor #22212C
  

  BoundaryBackgroundColor     #454158
  BoundaryBorderColor         #8AFF80
  BoundaryStereotypeFontColor #F8F8F2

  
  CaptionFontColor #F8F8F2
  CaptionFontSize 15

  CardBackgroundColor     #454158
  CardBorderColor         #8AFF80
  

  ClassAttributeFontColor #8AFF80

  ClassBackgroundColor   #22212C
  ClassBorderColor       #9580FF
  ClassBorderThickness	 2
	ClassArrowColor				 #FF80BF
  ClassFontColor 				 #8AFF80
  ClassFontSize 				 20
  
  ClassHeaderBackgroundColor #454158


  CloudBackgroundColor        #454158
  CloudBorderColor            #8AFF80
  
  CollectionsBackgroundColor #454158
  CollectionsBorderColor     #8AFF80

  
  ComponentBackgroundColor       #454158
  ComponentBorderColor           #8AFF80



  ControlBackgroundColor #454158
  ControlBorderColor     #8AFF80
  ControlFontColor       #F8F8F2
  ControlStereotypeFontColor #F8F8F2

  DatabaseBackgroundColor       #454158
  DatabaseBorderColor           #8AFF80

  

  


  EntityBackgroundColor #454158
  EntityBorderColor     #8AFF80
  

  FileBackgroundColor #454158
  FileBorderColor     #8AFF80


 
  FolderBackgroundColor #454158
  FolderBorderColor     #8AFF80
  

  FrameBackgroundColor       #454158
  FrameBorderColor           #8AFF80

  HexagonBackgroundColor #454158
  HexagonBorderColor     #8AFF80


  InterfaceBackgroundColor       #454158
  InterfaceBorderColor           #8AFF80

  LegendBackgroundColor   #454158
  LegendBorderColor       #F8F8F2

  
  NodeBackgroundColor       #454158
  NodeBorderColor           #8AFF80
  

  NoteBackgroundColor   #FFFF80
  NoteBorderColor       #22212C
  NoteFontColor         #22212C
  
  ObjectBackgroundColor       #454158
  ObjectBorderColor           #8AFF80
  
  PackageBackgroundColor       #22212C
  PackageBorderColor           #8AFF80

  
  ParticipantBackgroundColor #454158
  ParticipantBorderColor     #8AFF80
  
  PartitionBackgroundColor transparent
  PartitionBorderColor     #F8F8F2
  

  PersonBackgroundColor #454158
  PersonBorderColor     #8AFF80
  
  QueueBackgroundColor       #454158
  QueueBorderColor           #8AFF80
  
  
  RectangleBackgroundColor       #454158
  RectangleBorderColor           #8AFF80


  RoundCorner 20

  
  SequenceBoxBackgroundColor #454158
  SequenceBoxBorderColor     #8AFF80


  SequenceDividerBackgroundColor   #454158
  SequenceDividerBorderColor       #F8F8F2
  
  SequenceGroupBackgroundColor       #454158
  SequenceGroupBorderColor           #F8F8F2

  SequenceLifeLineBackgroundColor   #22212C
  SequenceLifeLineBorderColor       #8AFF80

  SequenceNewpageSeparatorColor  #F8F8F2
  
  
  SequenceReferenceBackgroundColor        transparent
  SequenceReferenceBorderColor            #F8F8F2
  SequenceReferenceHeaderBackgroundColor #454158

  
  Shadowing false

  StackBackgroundColor       #454158
  StackBorderColor           #8AFF80

  
  StateBackgroundColor    #454158
  StateBorderColor        #8AFF80
  StateEndColor           #FF9580
  StateStartColor         #8AFF80

  
  StorageBackgroundColor #454158
  StorageBorderColor     #F8F8F2
  
  
  SwimlaneBorderColor            #F8F8F2




  UsecaseBackgroundColor       #454158
  UsecaseBorderColor           #8AFF80
  
}


participant Participant as Foo
actor       Actor       as Foo1
boundary    Boundary    as Foo2
control     Control     as Foo3
entity      Entity      as Foo4
database    Database    as Foo5
collections Collections as Foo6
queue       Queue       as Foo7
Foo -> Foo1 : To actor
Foo -> Foo2 : To boundary
Foo -> Foo3 : To control
Foo -> Foo4 : To entity
Foo -> Foo5 : To database
Foo -> Foo6 : To collections
Foo -> Foo7: To queue

@enduml

PlantUML version 1.2022.7(Mon Aug 22 13:01:30 EDT 2022)
(GPL source distribution)
Java Runtime: Java(TM) SE Runtime Environment
JVM: Java HotSpot(TM) 64-Bit Server VM
Default Encoding: UTF-8
Language: en
Country: CA
--></g></svg>