<?xml version="1.0" encoding="us-ascii" standalone="no"?><svg xmlns="http://www.w3.org/2000/svg" xmlns:xlink="http://www.w3.org/1999/xlink" contentStyleType="text/css" height="373px" preserveAspectRatio="none" style="width:561px;height:373px;background:#24273A;" version="1.1" viewBox="0 0 561 373" width="561px" zoomAndPan="magnify"><defs/><g><rect fill="#24273A" height="373" style="stroke:none;stroke-width:1.0;" width="561" x="0" y="0"/><line style="stroke:#B7BDF8;stroke-width:0.5;stroke-dasharray:5.0,5.0;" x1="44" x2="44" y1="78.9688" y2="294.75"/><line style="stroke:#B7BDF8;stroke-width:0.5;stroke-dasharray:5.0,5.0;" x1="117.5" x2="117.5" y1="78.9688" y2="294.75"/><line style="stroke:#B7BDF8;stroke-width:0.5;stroke-dasharray:5.0,5.0;" x1="178.5" x2="178.5" y1="78.9688" y2="294.75"/><line style="stroke:#B7BDF8;stroke-width:0.5;stroke-dasharray:5.0,5.0;" x1="244.5" x2="244.5" y1="78.9688" y2="294.75"/><line style="stroke:#B7BDF8;stroke-width:0.5;stroke-dasharray:5.0,5.0;" x1="300.5" x2="300.5" y1="78.9688" y2="294.75"/><line style="stroke:#B7BDF8;stroke-width:0.5;stroke-dasharray:5.0,5.0;" x1="362.5" x2="362.5" y1="78.9688" y2="294.75"/><line style="stroke:#B7BDF8;stroke-width:0.5;stroke-dasharray:5.0,5.0;" x1="444.5" x2="444.5" y1="78.9688" y2="294.75"/><line style="stroke:#B7BDF8;stroke-width:0.5;stroke-dasharray:5.0,5.0;" x1="524.5" x2="524.5" y1="78.9688" y2="294.75"/><rect fill="#363A4F" height="27.9688" rx="1.5" ry="1.5" style="stroke:#B7BDF8;stroke-width:0.5;" width="79" x="5" y="50"/><text fill="#CAD3F5" font-family="Helvetica" font-size="12" lengthAdjust="spacing" textLength="65" x="12" y="68.1387">Participant</text><rect fill="#363A4F" height="27.9688" rx="1.5" ry="1.5" style="stroke:#B7BDF8;stroke-width:0.5;" width="79" x="5" y="293.75"/><text fill="#CAD3F5" font-family="Helvetica" font-size="12" lengthAdjust="spacing" textLength="65" x="12" y="311.8887">Participant</text><text fill="#CAD3F5" font-family="Helvetica" font-size="12" lengthAdjust="spacing" textLength="32" x="98.5" y="76.1387">Actor</text><ellipse cx="117.5" cy="13.5" fill="#363A4F" rx="8" ry="8" style="stroke:#B7BDF8;stroke-width:0.5;"/><path d="M117.5,21.5 L117.5,48.5 M104.5,29.5 L130.5,29.5 M117.5,48.5 L104.5,63.5 M117.5,48.5 L130.5,63.5 " fill="none" style="stroke:#B7BDF8;stroke-width:0.5;"/><text fill="#CAD3F5" font-family="Helvetica" font-size="12" lengthAdjust="spacing" textLength="32" x="98.5" y="304.8887">Actor</text><ellipse cx="117.5" cy="316.2188" fill="#363A4F" rx="8" ry="8" style="stroke:#B7BDF8;stroke-width:0.5;"/><path d="M117.5,324.2188 L117.5,351.2188 M104.5,332.2188 L130.5,332.2188 M117.5,351.2188 L104.5,366.2188 M117.5,351.2188 L130.5,366.2188 " fill="none" style="stroke:#B7BDF8;stroke-width:0.5;"/><text fill="#CAD3F5" font-family="Helvetica" font-size="12" lengthAdjust="spacing" textLength="58" x="146.5" y="76.1387">Boundary</text><path d="M158,37 L158,61 M158,49 L175,49 " fill="none" style="stroke:#B7BDF8;stroke-width:0.5;"/><ellipse cx="187" cy="49" fill="#363A4F" rx="12" ry="12" style="stroke:#B7BDF8;stroke-width:0.5;"/><text fill="#CAD3F5" font-family="Helvetica" font-size="12" lengthAdjust="spacing" textLength="58" x="146.5" y="304.8887">Boundary</text><path d="M158,311.7188 L158,335.7188 M158,323.7188 L175,323.7188 " fill="none" style="stroke:#B7BDF8;stroke-width:0.5;"/><ellipse cx="187" cy="323.7188" fill="#363A4F" rx="12" ry="12" style="stroke:#B7BDF8;stroke-width:0.5;"/><text fill="#CAD3F5" font-family="Helvetica" font-size="12" lengthAdjust="spacing" textLength="43" x="220.5" y="76.1387">Control</text><ellipse cx="245" cy="49" fill="#363A4F" rx="12" ry="12" style="stroke:#B7BDF8;stroke-width:0.5;"/><polygon fill="#B7BDF8" points="241,37,247,32,245,37,247,42,241,37" style="stroke:#B7BDF8;stroke-width:1.0;"/><text fill="#CAD3F5" font-family="Helvetica" font-size="12" lengthAdjust="spacing" textLength="43" x="220.5" y="304.8887">Control</text><ellipse cx="245" cy="323.7188" fill="#363A4F" rx="12" ry="12" style="stroke:#B7BDF8;stroke-width:0.5;"/><polygon fill="#B7BDF8" points="241,311.7188,247,306.7188,245,311.7188,247,316.7188,241,311.7188" style="stroke:#B7BDF8;stroke-width:1.0;"/><text fill="#CAD3F5" font-family="Helvetica" font-size="12" lengthAdjust="spacing" textLength="36" x="279.5" y="76.1387">Entity</text><ellipse cx="300.5" cy="49" fill="#363A4F" rx="12" ry="12" style="stroke:#B7BDF8;stroke-width:0.5;"/><line style="stroke:#B7BDF8;stroke-width:0.5;" x1="288.5" x2="312.5" y1="63" y2="63"/><text fill="#CAD3F5" font-family="Helvetica" font-size="12" lengthAdjust="spacing" textLength="36" x="279.5" y="304.8887">Entity</text><ellipse cx="300.5" cy="323.7188" fill="#363A4F" rx="12" ry="12" style="stroke:#B7BDF8;stroke-width:0.5;"/><line style="stroke:#B7BDF8;stroke-width:0.5;" x1="288.5" x2="312.5" y1="337.7188" y2="337.7188"/><text fill="#CAD3F5" font-family="Helvetica" font-size="12" lengthAdjust="spacing" textLength="56" x="331.5" y="76.1387">Database</text><path d="M344.5,29 C344.5,19 362.5,19 362.5,19 C362.5,19 380.5,19 380.5,29 L380.5,55 C380.5,65 362.5,65 362.5,65 C362.5,65 344.5,65 344.5,55 L344.5,29 " fill="#363A4F" style="stroke:#B7BDF8;stroke-width:1.5;"/><path d="M344.5,29 C344.5,39 362.5,39 362.5,39 C362.5,39 380.5,39 380.5,29 " fill="none" style="stroke:#B7BDF8;stroke-width:1.5;"/><text fill="#CAD3F5" font-family="Helvetica" font-size="12" lengthAdjust="spacing" textLength="56" x="331.5" y="304.8887">Database</text><path d="M344.5,317.7188 C344.5,307.7188 362.5,307.7188 362.5,307.7188 C362.5,307.7188 380.5,307.7188 380.5,317.7188 L380.5,343.7188 C380.5,353.7188 362.5,353.7188 362.5,353.7188 C362.5,353.7188 344.5,353.7188 344.5,343.7188 L344.5,317.7188 " fill="#363A4F" style="stroke:#B7BDF8;stroke-width:1.5;"/><path d="M344.5,317.7188 C344.5,327.7188 362.5,327.7188 362.5,327.7188 C362.5,327.7188 380.5,327.7188 380.5,317.7188 " fill="none" style="stroke:#B7BDF8;stroke-width:1.5;"/><rect fill="#363A4F" height="27.9688" rx="1.5" ry="1.5" style="stroke:#B7BDF8;stroke-width:0.5;" width="78" x="407.5" y="46"/><rect fill="#363A4F" height="27.9688" rx="1.5" ry="1.5" style="stroke:#B7BDF8;stroke-width:0.5;" width="78" x="403.5" y="50"/><text fill="#CAD3F5" font-family="Helvetica" font-size="12" lengthAdjust="spacing" textLength="64" x="410.5" y="68.1387">Collections</text><rect fill="#363A4F" height="27.9688" rx="1.5" ry="1.5" style="stroke:#B7BDF8;stroke-width:0.5;" width="78" x="407.5" y="293.75"/><rect fill="#363A4F" height="27.9688" rx="1.5" ry="1.5" style="stroke:#B7BDF8;stroke-width:0.5;" width="78" x="403.5" y="297.75"/><text fill="#CAD3F5" font-family="Helvetica" font-size="12" lengthAdjust="spacing" textLength="64" x="410.5" y="315.8887">Collections</text><path d="M500.5,55 L549.5,55 C554.5,55 554.5,66.9844 554.5,66.9844 C554.5,66.9844 554.5,78.9688 549.5,78.9688 L500.5,78.9688 C495.5,78.9688 495.5,66.9844 495.5,66.9844 C495.5,66.9844 495.5,55 500.5,55 " fill="#363A4F" style="stroke:#B7BDF8;stroke-width:0.5;"/><path d="M549.5,55 C544.5,55 544.5,66.9844 544.5,66.9844 C544.5,78.9688 549.5,78.9688 549.5,78.9688 " fill="none" style="stroke:#B7BDF8;stroke-width:0.5;"/><text fill="#CAD3F5" font-family="Helvetica" font-size="12" lengthAdjust="spacing" textLength="39" x="500.5" y="71.1387">Queue</text><path d="M500.5,293.75 L549.5,293.75 C554.5,293.75 554.5,305.7344 554.5,305.7344 C554.5,305.7344 554.5,317.7188 549.5,317.7188 L500.5,317.7188 C495.5,317.7188 495.5,305.7344 495.5,305.7344 C495.5,305.7344 495.5,293.75 500.5,293.75 " fill="#363A4F" style="stroke:#B7BDF8;stroke-width:0.5;"/><path d="M549.5,293.75 C544.5,293.75 544.5,305.7344 544.5,305.7344 C544.5,317.7188 549.5,317.7188 549.5,317.7188 " fill="none" style="stroke:#B7BDF8;stroke-width:0.5;"/><text fill="#CAD3F5" font-family="Helvetica" font-size="12" lengthAdjust="spacing" textLength="39" x="500.5" y="309.8887">Queue</text><polygon fill="#F5BDE6" points="105.5,104.9375,115.5,108.9375,105.5,112.9375,109.5,108.9375" style="stroke:#F5BDE6;stroke-width:1.0;"/><line style="stroke:#F5BDE6;stroke-width:1.0;" x1="44.5" x2="111.5" y1="108.9375" y2="108.9375"/><text fill="#CAD3F5" font-family="Helvetica" font-size="12" lengthAdjust="spacing" textLength="49" x="51.5" y="104.1074">To actor</text><polygon fill="#F5BDE6" points="166.5,132.9063,176.5,136.9063,166.5,140.9063,170.5,136.9063" style="stroke:#F5BDE6;stroke-width:1.0;"/><line style="stroke:#F5BDE6;stroke-width:1.0;" x1="44.5" x2="172.5" y1="136.9063" y2="136.9063"/><text fill="#CAD3F5" font-family="Helvetica" font-size="12" lengthAdjust="spacing" textLength="76" x="51.5" y="132.0762">To boundary</text><polygon fill="#F5BDE6" points="233,160.875,243,164.875,233,168.875,237,164.875" style="stroke:#F5BDE6;stroke-width:1.0;"/><line style="stroke:#F5BDE6;stroke-width:1.0;" x1="44.5" x2="239" y1="164.875" y2="164.875"/><text fill="#CAD3F5" font-family="Helvetica" font-size="12" lengthAdjust="spacing" textLength="60" x="51.5" y="160.0449">To control</text><polygon fill="#F5BDE6" points="288.5,188.8438,298.5,192.8438,288.5,196.8438,292.5,192.8438" style="stroke:#F5BDE6;stroke-width:1.0;"/><line style="stroke:#F5BDE6;stroke-width:1.0;" x1="44.5" x2="294.5" y1="192.8438" y2="192.8438"/><text fill="#CAD3F5" font-family="Helvetica" font-size="12" lengthAdjust="spacing" textLength="53" x="51.5" y="188.0137">To entity</text><polygon fill="#F5BDE6" points="350.5,216.8125,360.5,220.8125,350.5,224.8125,354.5,220.8125" style="stroke:#F5BDE6;stroke-width:1.0;"/><line style="stroke:#F5BDE6;stroke-width:1.0;" x1="44.5" x2="356.5" y1="220.8125" y2="220.8125"/><text fill="#CAD3F5" font-family="Helvetica" font-size="12" lengthAdjust="spacing" textLength="73" x="51.5" y="215.9824">To database</text><polygon fill="#F5BDE6" points="432.5,244.7813,442.5,248.7813,432.5,252.7813,436.5,248.7813" style="stroke:#F5BDE6;stroke-width:1.0;"/><line style="stroke:#F5BDE6;stroke-width:1.0;" x1="44.5" x2="438.5" y1="248.7813" y2="248.7813"/><text fill="#CAD3F5" font-family="Helvetica" font-size="12" lengthAdjust="spacing" textLength="81" x="51.5" y="243.9512">To collections</text><polygon fill="#F5BDE6" points="513,272.75,523,276.75,513,280.75,517,276.75" style="stroke:#F5BDE6;stroke-width:1.0;"/><line style="stroke:#F5BDE6;stroke-width:1.0;" x1="44.5" x2="519" y1="276.75" y2="276.75"/><text fill="#CAD3F5" font-family="Helvetica" font-size="12" lengthAdjust="spacing" textLength="56" x="51.5" y="271.9199">To queue</text><!--SRC=[JO_B2i8m44NtynNn0wpO9xWGVAuL_84q3HX8azfE5lrxsqohaqMut4CkEHlZb0sD5acomxTkTTA5rW9qiaUZJ2STYWVBSX1txq4gzBsWSsAPy1vg7rmZ-t7kpYmJJq5vXxstySs5PU8PQ8S6HzgyiKmyXqQYhEMWv-xACl5YshTMApJU3TF-FnCluHDqqCkVdomJhs2wnFOONSH1lBo8mgnEgLuz6Sc8B8OCv0H8ZVK5zQiI8-KwzHDWi8eiYi0N]--></g></svg>