<?xml version="1.0" encoding="us-ascii" standalone="no"?><svg xmlns="http://www.w3.org/2000/svg" xmlns:xlink="http://www.w3.org/1999/xlink" contentStyleType="text/css" height="645px" preserveAspectRatio="none" style="width:356px;height:645px;background:#24273A;" version="1.1" viewBox="0 0 356 645" width="356px" zoomAndPan="magnify"><defs/><g><rect fill="#24273A" height="645" style="stroke:none;stroke-width:1.0;" width="356" x="0" y="0"/><g id="elem_choice1"><polygon fill="#363A4F" points="235,115,247,127,235,139,223,127,235,115" style="stroke:#B7BDF8;stroke-width:0.5;"/></g><rect fill="#CAD3F5" height="8" style="stroke:none;stroke-width:1.0;" width="80" x="98" y="235"/><rect fill="#CAD3F5" height="8" style="stroke:none;stroke-width:1.0;" width="80" x="108" y="499"/><ellipse cx="299" cy="239" fill="none" rx="11" ry="11" style="stroke:#ED8796;stroke-width:1.0;"/><ellipse cx="299" cy="239" fill="#222222" rx="6" ry="6" style="stroke:#ED8796;stroke-width:1.0;"/><ellipse cx="235" cy="16" fill="#A6DA95" rx="10" ry="10" style="stroke:#222222;stroke-width:1.0;"/><g id="State1"><rect fill="#363A4F" height="50" rx="1.5" ry="1.5" style="stroke:#B7BDF8;stroke-width:0.5;" width="60" x="7" y="478"/><line style="stroke:#B7BDF8;stroke-width:0.5;" x1="7" x2="67" y1="501.9688" y2="501.9688"/><text fill="#CAD3F5" font-family="Helvetica" font-size="12" lengthAdjust="spacing" textLength="40" x="17" y="494.1387">State1</text></g><g id="State2"><rect fill="#363A4F" height="50" rx="1.5" ry="1.5" style="stroke:#B7BDF8;stroke-width:0.5;" width="60" x="120" y="339"/><line style="stroke:#B7BDF8;stroke-width:0.5;" x1="120" x2="180" y1="362.9688" y2="362.9688"/><text fill="#CAD3F5" font-family="Helvetica" font-size="12" lengthAdjust="spacing" textLength="40" x="130" y="355.1387">State2</text></g><ellipse cx="89" cy="628" fill="none" rx="11" ry="11" style="stroke:#ED8796;stroke-width:1.0;"/><ellipse cx="89" cy="628" fill="#222222" rx="6" ry="6" style="stroke:#ED8796;stroke-width:1.0;"/><!--link *start* to choice1--><g id="link_*start*_choice1"><path d="M235,26.29 C235,46.27 235,87.23 235,108.8 " fill="none" id="*start*-to-choice1" style="stroke:#F5BDE6;stroke-width:1.0;"/><polygon fill="#F5BDE6" points="235,114.8,239,105.8,235,109.8,231,105.8,235,114.8" style="stroke:#F5BDE6;stroke-width:1.0;"/><text fill="#CAD3F5" font-family="Helvetica" font-size="12" lengthAdjust="spacing" textLength="60" x="236" y="68.1387">from start</text><text fill="#CAD3F5" font-family="Helvetica" font-size="12" lengthAdjust="spacing" textLength="55" x="238.5" y="82.1074">to choice</text></g><!--link choice1 to fork1--><g id="link_choice1_fork1"><path d="M224.57,128.7 C203.53,130.76 156.26,138.68 136,169 C121.75,190.32 130.5975,218.5979 134.5875,229.1479 " fill="none" id="choice1-to-fork1" style="stroke:#F5BDE6;stroke-width:1.0;"/><polygon fill="#F5BDE6" points="136.71,234.76,137.2677,224.9269,134.9413,230.0833,129.7849,227.7569,136.71,234.76" style="stroke:#F5BDE6;stroke-width:1.0;"/><text fill="#CAD3F5" font-family="Helvetica" font-size="12" lengthAdjust="spacing" textLength="71" x="137" y="181.1387">from choice</text><text fill="#CAD3F5" font-family="Helvetica" font-size="12" lengthAdjust="spacing" textLength="39" x="153" y="195.1074">to fork</text></g><!--link choice1 to join2--><g id="link_choice1_join2"><path d="M236.87,137.34 C244.39,177.4 269.46,337.71 213,448 C199.76,473.86 173.4755,489.3148 159.8155,496.2148 " fill="none" id="choice1-to-join2" style="stroke:#F5BDE6;stroke-width:1.0;"/><polygon fill="#F5BDE6" points="154.46,498.92,164.2968,498.4325,158.923,496.6657,160.6898,491.2918,154.46,498.92" style="stroke:#F5BDE6;stroke-width:1.0;"/><text fill="#CAD3F5" font-family="Helvetica" font-size="12" lengthAdjust="spacing" textLength="71" x="249" y="292.1387">from choice</text><text fill="#CAD3F5" font-family="Helvetica" font-size="12" lengthAdjust="spacing" textLength="37" x="266" y="306.1074">to join</text></g><!--link choice1 to end3--><g id="link_choice1_end3"><path d="M239.32,134.92 C244.36,143.04 252.91,156.92 260,169 C272.54,190.36 283.8236,210.5409 291.1436,223.7609 " fill="none" id="choice1-to-end3" style="stroke:#F5BDE6;stroke-width:1.0;"/><polygon fill="#F5BDE6" points="294.05,229.01,293.1897,219.1988,291.628,224.6358,286.191,223.074,294.05,229.01" style="stroke:#F5BDE6;stroke-width:1.0;"/><text fill="#CAD3F5" font-family="Helvetica" font-size="12" lengthAdjust="spacing" textLength="71" x="277" y="181.1387">from choice</text><text fill="#CAD3F5" font-family="Helvetica" font-size="12" lengthAdjust="spacing" textLength="39" x="293" y="195.1074">to end</text></g><!--link fork1 to State1--><g id="link_fork1_State1"><path d="M133.36,243.06 C117.43,253.87 64.91,292.12 45,339 C25.45,385.03 28.3133,439.1166 32.4333,471.9666 " fill="none" id="fork1-to-State1" style="stroke:#F5BDE6;stroke-width:1.0;"/><polygon fill="#F5BDE6" points="33.18,477.92,36.0289,468.4922,32.5578,472.9589,28.0911,469.4877,33.18,477.92" style="stroke:#F5BDE6;stroke-width:1.0;"/><text fill="#CAD3F5" font-family="Helvetica" font-size="12" lengthAdjust="spacing" textLength="55" x="46" y="361.6387">from fork</text><text fill="#CAD3F5" font-family="Helvetica" font-size="12" lengthAdjust="spacing" textLength="46" x="50.5" y="375.6074">to state</text></g><!--link fork1 to State2--><g id="link_fork1_State2"><path d="M137.67,243.31 C137,250.16 135.51,266.36 135,280 C134.52,292.88 133.26,296.23 135,309 C136.35,318.93 137.3465,323.8569 140.0765,333.0769 " fill="none" id="fork1-to-State2" style="stroke:#F5BDE6;stroke-width:1.0;"/><polygon fill="#F5BDE6" points="141.78,338.83,143.0602,329.0647,140.3604,334.0357,135.3894,331.336,141.78,338.83" style="stroke:#F5BDE6;stroke-width:1.0;"/><text fill="#CAD3F5" font-family="Helvetica" font-size="12" lengthAdjust="spacing" textLength="55" x="136" y="292.1387">from fork</text><text fill="#CAD3F5" font-family="Helvetica" font-size="12" lengthAdjust="spacing" textLength="46" x="140.5" y="306.1074">to state</text></g><!--link State2 to join2--><g id="link_State2_join2"><path d="M147.28,389.16 C146.36,398.47 145.45,409.22 145,419 C143.56,450.11 146.1424,481.835 147.1524,492.855 " fill="none" id="State2-to-join2" style="stroke:#F5BDE6;stroke-width:1.0;"/><polygon fill="#F5BDE6" points="147.7,498.83,150.8619,489.5025,147.2437,493.8509,142.8953,490.2326,147.7,498.83" style="stroke:#F5BDE6;stroke-width:1.0;"/><text fill="#CAD3F5" font-family="Helvetica" font-size="12" lengthAdjust="spacing" textLength="62" x="146" y="431.1387">from state</text><text fill="#CAD3F5" font-family="Helvetica" font-size="12" lengthAdjust="spacing" textLength="37" x="158.5" y="445.1074">to join</text></g><!--link State1 to *end*--><g id="link_State1_*end*"><path d="M30.14,528.23 C26.62,545.54 24.77,568.88 34,587 C43.43,605.52 60.3823,615.0998 73.5023,620.7698 " fill="none" id="State1-to-*end*" style="stroke:#F5BDE6;stroke-width:1.0;"/><polygon fill="#F5BDE6" points="79.01,623.15,72.3353,615.9079,74.4203,621.1665,69.1617,623.2514,79.01,623.15" style="stroke:#F5BDE6;stroke-width:1.0;"/><text fill="#CAD3F5" font-family="Helvetica" font-size="12" lengthAdjust="spacing" textLength="62" x="35" y="570.1387">from state</text><text fill="#CAD3F5" font-family="Helvetica" font-size="12" lengthAdjust="spacing" textLength="39" x="46.5" y="584.1074">to end</text></g><!--link join2 to *end*--><g id="link_join2_*end*"><path d="M146.54,507.04 C139.16,522.43 108.3857,586.5905 96.1257,612.1405 " fill="none" id="join2-to-*end*" style="stroke:#F5BDE6;stroke-width:1.0;"/><polygon fill="#F5BDE6" points="93.53,617.55,101.0299,611.1663,95.6931,613.0421,93.8172,607.7053,93.53,617.55" style="stroke:#F5BDE6;stroke-width:1.0;"/><text fill="#CAD3F5" font-family="Helvetica" font-size="12" lengthAdjust="spacing" textLength="53" x="124" y="570.1387">from join</text><text fill="#CAD3F5" font-family="Helvetica" font-size="12" lengthAdjust="spacing" textLength="39" x="131" y="584.1074">to end</text></g><!--SRC=[TP113e8m44NtSufnQm86t1d29Log2rDAGA4rMEvlP-XKIN4t_FVQ-MNN6pNCZSOyFxXEZpf_pUC0y7Ptfr5rjbUwmAfQfheEeBNJiq3qWAOOFsnlIevfYh4spH4vzfDFuRA_qJTcMHrtdB2Tx8Z-nEIknja0G3YviZQu2sAPo4gLAgbAPALAlLJr142MPkIUwK6nB24M-Pq_PX1B_6E2u8sgR7oRXeriodzBJ2ugzsoOXABu0G00]--></g></svg>