<?xml version="1.0" encoding="UTF-8" standalone="no"?><svg xmlns="http://www.w3.org/2000/svg" xmlns:xlink="http://www.w3.org/1999/xlink" contentStyleType="text/css" height="440px" preserveAspectRatio="none" style="width:452px;height:440px;background:#22212C;" version="1.1" viewBox="0 0 452 440" width="452px" zoomAndPan="magnify"><defs/><g><!--MD5=[fb1b454ac1984f657a61539df0e47555]
cluster Professional--><g id="cluster_Professional"><path d="M16,168.8 L146,168.8 A15,15 0 0 1 156,178.8 L163,198.8 L160,198.8 A10,10 0 0 1 170,208.8 L170,419.8 A10,10 0 0 1 160,429.8 L16,429.8 A10,10 0 0 1 6,419.8 L6,178.8 A10,10 0 0 1 16,168.8 " fill="#22212C" style="stroke:#F8F8F2;stroke-width:1.5;"/><line style="stroke:#F8F8F2;stroke-width:1.5;" x1="6" x2="163" y1="198.8" y2="198.8"/><text fill="#FF80BF" font-family="Fira Mono" font-size="20" font-weight="bold" lengthAdjust="spacing" textLength="144" x="10" y="189.5">Professional</text></g><!--MD5=[bc938698130bec3721522f38f16e3aed]
cluster Restaurant--><g id="cluster_Restaurant"><path d="M208,7.8 L314,7.8 A15,15 0 0 1 324,17.8 L331,37.8 L431,37.8 A10,10 0 0 1 441,47.8 L441,333.8 A10,10 0 0 1 431,343.8 L208,343.8 A10,10 0 0 1 198,333.8 L198,17.8 A10,10 0 0 1 208,7.8 " fill="#22212C" style="stroke:#F8F8F2;stroke-width:1.5;"/><line style="stroke:#F8F8F2;stroke-width:1.5;" x1="198" x2="331" y1="37.8" y2="37.8"/><text fill="#FF80BF" font-family="Fira Mono" font-size="20" font-weight="bold" lengthAdjust="spacing" textLength="120" x="202" y="28.5">Restaurant</text></g><!--MD5=[8e9b2d9d80e066cced8e5d90e9bdea61]
entity c--><g id="elem_c"><ellipse cx="88" cy="219.3" fill="#454158" rx="8" ry="8" style="stroke:#8AFF80;stroke-width:0.5;"/><path d="M88,227.3 L88,254.3 M75,235.3 L101,235.3 M88,254.3 L75,269.3 M88,254.3 L101,269.3 " fill="none" style="stroke:#8AFF80;stroke-width:0.5;"/><text fill="#FF80BF" font-family="Fira Mono" font-size="20" lengthAdjust="spacing" textLength="48" x="64" y="289.5">Chef</text></g><!--MD5=[db756db308cf6ff8cfeeb51570136b75]
entity fc--><g id="elem_fc"><ellipse cx="88" cy="338.3" fill="#454158" rx="8" ry="8" style="stroke:#8AFF80;stroke-width:0.5;"/><path d="M88,346.3 L88,373.3 M75,354.3 L101,354.3 M88,373.3 L75,388.3 M88,373.3 L101,388.3 " fill="none" style="stroke:#8AFF80;stroke-width:0.5;"/><text fill="#FF80BF" font-family="Fira Mono" font-size="20" lengthAdjust="spacing" textLength="132" x="22" y="408.5">Food Critic</text></g><g id="elem_UC1"><ellipse cx="319.7063" cy="70.7347" fill="#454158" rx="83.7063" ry="20.9347" style="stroke:#8AFF80;stroke-width:0.5;"/><text fill="#FF80BF" font-family="Fira Mono" font-size="20" lengthAdjust="spacing" textLength="96" x="268.7063" y="77.3347">Eat Food</text></g><g id="elem_UC2"><ellipse cx="319.2509" cy="150.7502" fill="#454158" rx="105.2509" ry="23.4502" style="stroke:#8AFF80;stroke-width:0.5;"/><text fill="#FF80BF" font-family="Fira Mono" font-size="20" lengthAdjust="spacing" textLength="144" x="244.2509" y="157.3502">Pay for Food</text></g><g id="elem_UC3"><ellipse cx="319.6779" cy="230.0259" fill="#454158" rx="56.1779" ry="20.726" style="stroke:#8AFF80;stroke-width:0.5;"/><text fill="#FF80BF" font-family="Fira Mono" font-size="20" lengthAdjust="spacing" textLength="60" x="286.6779" y="236.6259">Drink</text></g><g id="elem_UC4"><ellipse cx="319.3524" cy="306.615" fill="#454158" rx="65.3524" ry="20.815" style="stroke:#8AFF80;stroke-width:0.5;"/><text fill="#FF80BF" font-family="Fira Mono" font-size="20" lengthAdjust="spacing" textLength="72" x="280.3524" y="313.2149">Review</text></g><!--MD5=[338e9af232e5abde8a6bc8ae9f528414]
entity g--><g id="elem_g"><ellipse cx="88" cy="77.3" fill="#454158" rx="8" ry="8" style="stroke:#8AFF80;stroke-width:0.5;"/><path d="M88,85.3 L88,112.3 M75,93.3 L101,93.3 M88,112.3 L75,127.3 M88,112.3 L101,127.3 " fill="none" style="stroke:#8AFF80;stroke-width:0.5;"/><text fill="#FF80BF" font-family="Fira Mono" font-size="20" lengthAdjust="spacing" textLength="60" x="58" y="147.5">Guest</text></g><!--MD5=[671315809142cbf8f95afb4988884e94]
link fc to UC4--><g id="link_fc_UC4"><path d="M154.15,353.35 C189,343.48 231.39,331.47 264.4,322.12 " fill="none" id="fc-to-UC4" style="stroke:#FF80BF;stroke-width:1.0;"/><polygon fill="#FF80BF" points="269.61,320.65,259.8623,319.242,264.7976,322.0066,262.0329,326.9419,269.61,320.65" style="stroke:#FF80BF;stroke-width:1.0;"/></g><!--MD5=[e6283e10ea57013afd663a209f443892]
link g to UC1--><g id="link_g_UC1"><path d="M118.07,105.73 C149.89,100.19 202.14,91.08 245.31,83.56 " fill="none" id="g-to-UC1" style="stroke:#FF80BF;stroke-width:1.0;"/><polygon fill="#FF80BF" points="250.26,82.69,240.7077,80.2912,245.3339,83.5467,242.0785,88.1729,250.26,82.69" style="stroke:#FF80BF;stroke-width:1.0;"/></g><!--MD5=[de7f95d11870be32e701ecd3c2a76950]
link g to UC2--><g id="link_g_UC2"><path d="M118.07,115.87 C146.35,120.8 190.76,128.54 230.6,135.48 " fill="none" id="g-to-UC2" style="stroke:#FF80BF;stroke-width:1.0;"/><polygon fill="#FF80BF" points="235.94,136.41,227.7585,130.9271,231.0139,135.5533,226.3877,138.8088,235.94,136.41" style="stroke:#FF80BF;stroke-width:1.0;"/></g><!--MD5=[ea36581ba262fe67fca98703761d6744]
link g to UC3--><g id="link_g_UC3"><path d="M118.2,139.34 C137.28,156.63 163.51,177.95 190,191.8 C213.29,203.98 241.05,212.81 264.79,218.87 " fill="none" id="g-to-UC3" style="stroke:#FF80BF;stroke-width:1.0;"/><polygon fill="#FF80BF" points="269.8,220.12,262.0389,214.0566,264.9493,218.9073,260.0986,221.8177,269.8,220.12" style="stroke:#FF80BF;stroke-width:1.0;"/></g><!--MD5=[9b96f6c2e91544b8d3dee07845cd50d1]
@startuml

!include ../theme.puml

left to right direction
actor Guest as g
package Professional {
  actor Chef as c
  actor "Food Critic" as fc
}
package Restaurant {
  usecase "Eat Food" as UC1
  usecase "Pay for Food" as UC2
  usecase "Drink" as UC3
  usecase "Review" as UC4
}
fc - -> UC4
g - -> UC1
g - -> UC2
g - -> UC3

@enduml

@startuml






skinparam backgroundColor #22212C
skinparam {
  DefaultFontColor #FF80BF
  DefaultFontName Fira Mono
  DefaultFontSize 20

  

  ActivityBackgroundColor        #454158
  ActivityBarColor               #F8F8F2
  ActivityBorderColor            #8AFF80
  ActivityDiamondBackgroundColor #454158
  ActivityDiamondBorderColor     #8AFF80
  ActivityEndColor               #FF9580
  ActivityStartColor             #8AFF80
  ActivityStopColor              #FF9580

  ActorBackgroundColor        #454158
  ActorBorderColor            #8AFF80
  ActorStereotypeFontColor    #F8F8F2

  AgentBackgroundColor       #454158
  AgentBorderColor           #8AFF80

  
  ArrowColor #8AFF80

  ArtifactBackgroundColor     #454158
  ArtifactBorderColor         #8AFF80

  BackgroundColor #22212C
  

  BoundaryBackgroundColor     #454158
  BoundaryBorderColor         #8AFF80
  BoundaryStereotypeFontColor #F8F8F2

  
  CaptionFontColor #F8F8F2
  CaptionFontSize 15

  CardBackgroundColor     #454158
  CardBorderColor         #8AFF80
  

  ClassAttributeFontColor #8AFF80

  ClassBackgroundColor   #22212C
  ClassBorderColor       #9580FF
  ClassBorderThickness	 2
	ClassArrowColor				 #FF80BF
  ClassFontColor 				 #8AFF80
  ClassFontSize 				 20
  
  ClassHeaderBackgroundColor #454158


  CloudBackgroundColor        #454158
  CloudBorderColor            #8AFF80
  
  CollectionsBackgroundColor #454158
  CollectionsBorderColor     #8AFF80

  
  ComponentBackgroundColor       #454158
  ComponentBorderColor           #8AFF80



  ControlBackgroundColor #454158
  ControlBorderColor     #8AFF80
  ControlFontColor       #F8F8F2
  ControlStereotypeFontColor #F8F8F2

  DatabaseBackgroundColor       #454158
  DatabaseBorderColor           #8AFF80

  

  


  EntityBackgroundColor #454158
  EntityBorderColor     #8AFF80
  

  FileBackgroundColor #454158
  FileBorderColor     #8AFF80


 
  FolderBackgroundColor #454158
  FolderBorderColor     #8AFF80
  

  FrameBackgroundColor       #454158
  FrameBorderColor           #8AFF80

  HexagonBackgroundColor #454158
  HexagonBorderColor     #8AFF80


  InterfaceBackgroundColor       #454158
  InterfaceBorderColor           #8AFF80

  LegendBackgroundColor   #454158
  LegendBorderColor       #F8F8F2

  
  NodeBackgroundColor       #454158
  NodeBorderColor           #8AFF80
  

  NoteBackgroundColor   #FFFF80
  NoteBorderColor       #22212C
  NoteFontColor         #22212C
  
  ObjectBackgroundColor       #454158
  ObjectBorderColor           #8AFF80
  
  PackageBackgroundColor       #22212C
  PackageBorderColor           #8AFF80

  
  ParticipantBackgroundColor #454158
  ParticipantBorderColor     #8AFF80
  
  PartitionBackgroundColor transparent
  PartitionBorderColor     #F8F8F2
  

  PersonBackgroundColor #454158
  PersonBorderColor     #8AFF80
  
  QueueBackgroundColor       #454158
  QueueBorderColor           #8AFF80
  
  
  RectangleBackgroundColor       #454158
  RectangleBorderColor           #8AFF80


  RoundCorner 20

  
  SequenceBoxBackgroundColor #454158
  SequenceBoxBorderColor     #8AFF80


  SequenceDividerBackgroundColor   #454158
  SequenceDividerBorderColor       #F8F8F2
  
  SequenceGroupBackgroundColor       #454158
  SequenceGroupBorderColor           #F8F8F2

  SequenceLifeLineBackgroundColor   #22212C
  SequenceLifeLineBorderColor       #8AFF80

  SequenceNewpageSeparatorColor  #F8F8F2
  
  
  SequenceReferenceBackgroundColor        transparent
  SequenceReferenceBorderColor            #F8F8F2
  SequenceReferenceHeaderBackgroundColor #454158

  
  Shadowing false

  StackBackgroundColor       #454158
  StackBorderColor           #8AFF80

  
  StateBackgroundColor    #454158
  StateBorderColor        #8AFF80
  StateEndColor           #FF9580
  StateStartColor         #8AFF80

  
  StorageBackgroundColor #454158
  StorageBorderColor     #F8F8F2
  
  
  SwimlaneBorderColor            #F8F8F2




  UsecaseBackgroundColor       #454158
  UsecaseBorderColor           #8AFF80
  
}


left to right direction
actor Guest as g
package Professional {
  actor Chef as c
  actor "Food Critic" as fc
}
package Restaurant {
  usecase "Eat Food" as UC1
  usecase "Pay for Food" as UC2
  usecase "Drink" as UC3
  usecase "Review" as UC4
}
fc - -> UC4
g - -> UC1
g - -> UC2
g - -> UC3

@enduml

PlantUML version 1.2022.7(Mon Aug 22 13:01:30 EDT 2022)
(GPL source distribution)
Java Runtime: OpenJDK Runtime Environment
JVM: OpenJDK 64-Bit Server VM
Default Encoding: UTF-8
Language: en
Country: CA
--></g></svg>